<?xml version="1.0" encoding="utf-8" standalone="no"?>
<!DOCTYPE svg PUBLIC "-//W3C//DTD SVG 1.1//EN"
  "http://www.w3.org/Graphics/SVG/1.1/DTD/svg11.dtd">
<!-- Created with matplotlib (http://matplotlib.org/) -->
<svg height="756pt" version="1.1" viewBox="0 0 1332 756" width="1332pt" xmlns="http://www.w3.org/2000/svg" xmlns:xlink="http://www.w3.org/1999/xlink">
 <defs>
  <style type="text/css">
*{stroke-linecap:butt;stroke-linejoin:round;}
  </style>
 </defs>
 <g id="figure_1">
  <g id="patch_1">
   <path d="M 0 756 
L 1332 756 
L 1332 0 
L 0 0 
z
" style="fill:#ffffff;"/>
  </g>
  <g id="axes_1">
   <g id="patch_2">
    <path d="M 166.5 661.5 
L 1198.8 661.5 
L 1198.8 90.72 
L 166.5 90.72 
z
" style="fill:#ffffff;"/>
   </g>
   <g id="matplotlib.axis_1">
    <g id="xtick_1">
     <g id="line2d_1">
      <path clip-path="url(#p5b3aa7c458)" d="M 166.5 661.5 
L 166.5 90.72 
" style="fill:none;stroke:#cccccc;stroke-linecap:round;stroke-width:0.8;"/>
     </g>
     <g id="line2d_2"/>
     <g id="text_1">
      <!-- 0 -->
      <defs>
       <path d="M 4.15625 35.296875 
Q 4.15625 48 6.765625 55.734375 
Q 9.375 63.484375 14.515625 67.671875 
Q 19.671875 71.875 27.484375 71.875 
Q 33.25 71.875 37.59375 69.546875 
Q 41.9375 67.234375 44.765625 62.859375 
Q 47.609375 58.5 49.21875 52.21875 
Q 50.828125 45.953125 50.828125 35.296875 
Q 50.828125 22.703125 48.234375 14.96875 
Q 45.65625 7.234375 40.5 3 
Q 35.359375 -1.21875 27.484375 -1.21875 
Q 17.140625 -1.21875 11.234375 6.203125 
Q 4.15625 15.140625 4.15625 35.296875 
z
M 13.1875 35.296875 
Q 13.1875 17.671875 17.3125 11.828125 
Q 21.4375 6 27.484375 6 
Q 33.546875 6 37.671875 11.859375 
Q 41.796875 17.71875 41.796875 35.296875 
Q 41.796875 52.984375 37.671875 58.78125 
Q 33.546875 64.59375 27.390625 64.59375 
Q 21.34375 64.59375 17.71875 59.46875 
Q 13.1875 52.9375 13.1875 35.296875 
z
" id="ArialMT-30"/>
      </defs>
      <g style="fill:#262626;" transform="translate(162.05125 676.4525)scale(0.16 -0.16)">
       <use xlink:href="#ArialMT-30"/>
      </g>
     </g>
    </g>
    <g id="xtick_2">
     <g id="line2d_3">
      <path clip-path="url(#p5b3aa7c458)" d="M 313.82181 661.5 
L 313.82181 90.72 
" style="fill:none;stroke:#cccccc;stroke-linecap:round;stroke-width:0.8;"/>
     </g>
     <g id="line2d_4"/>
     <g id="text_2">
      <!-- 200 -->
      <defs>
       <path d="M 50.34375 8.453125 
L 50.34375 0 
L 3.03125 0 
Q 2.9375 3.171875 4.046875 6.109375 
Q 5.859375 10.9375 9.828125 15.625 
Q 13.8125 20.3125 21.34375 26.46875 
Q 33.015625 36.03125 37.109375 41.625 
Q 41.21875 47.21875 41.21875 52.203125 
Q 41.21875 57.421875 37.46875 61 
Q 33.734375 64.59375 27.734375 64.59375 
Q 21.390625 64.59375 17.578125 60.78125 
Q 13.765625 56.984375 13.71875 50.25 
L 4.6875 51.171875 
Q 5.609375 61.28125 11.65625 66.578125 
Q 17.71875 71.875 27.9375 71.875 
Q 38.234375 71.875 44.234375 66.15625 
Q 50.25 60.453125 50.25 52 
Q 50.25 47.703125 48.484375 43.546875 
Q 46.734375 39.40625 42.65625 34.8125 
Q 38.578125 30.21875 29.109375 22.21875 
Q 21.1875 15.578125 18.9375 13.203125 
Q 16.703125 10.84375 15.234375 8.453125 
z
" id="ArialMT-32"/>
      </defs>
      <g style="fill:#262626;" transform="translate(300.47556 676.4525)scale(0.16 -0.16)">
       <use xlink:href="#ArialMT-32"/>
       <use x="55.615234" xlink:href="#ArialMT-30"/>
       <use x="111.230469" xlink:href="#ArialMT-30"/>
      </g>
     </g>
    </g>
    <g id="xtick_3">
     <g id="line2d_5">
      <path clip-path="url(#p5b3aa7c458)" d="M 461.14362 661.5 
L 461.14362 90.72 
" style="fill:none;stroke:#cccccc;stroke-linecap:round;stroke-width:0.8;"/>
     </g>
     <g id="line2d_6"/>
     <g id="text_3">
      <!-- 400 -->
      <defs>
       <path d="M 32.328125 0 
L 32.328125 17.140625 
L 1.265625 17.140625 
L 1.265625 25.203125 
L 33.9375 71.578125 
L 41.109375 71.578125 
L 41.109375 25.203125 
L 50.78125 25.203125 
L 50.78125 17.140625 
L 41.109375 17.140625 
L 41.109375 0 
z
M 32.328125 25.203125 
L 32.328125 57.46875 
L 9.90625 25.203125 
z
" id="ArialMT-34"/>
      </defs>
      <g style="fill:#262626;" transform="translate(447.79737 676.4525)scale(0.16 -0.16)">
       <use xlink:href="#ArialMT-34"/>
       <use x="55.615234" xlink:href="#ArialMT-30"/>
       <use x="111.230469" xlink:href="#ArialMT-30"/>
      </g>
     </g>
    </g>
    <g id="xtick_4">
     <g id="line2d_7">
      <path clip-path="url(#p5b3aa7c458)" d="M 608.465431 661.5 
L 608.465431 90.72 
" style="fill:none;stroke:#cccccc;stroke-linecap:round;stroke-width:0.8;"/>
     </g>
     <g id="line2d_8"/>
     <g id="text_4">
      <!-- 600 -->
      <defs>
       <path d="M 49.75 54.046875 
L 41.015625 53.375 
Q 39.84375 58.546875 37.703125 60.890625 
Q 34.125 64.65625 28.90625 64.65625 
Q 24.703125 64.65625 21.53125 62.3125 
Q 17.390625 59.28125 14.984375 53.46875 
Q 12.59375 47.65625 12.5 36.921875 
Q 15.671875 41.75 20.265625 44.09375 
Q 24.859375 46.4375 29.890625 46.4375 
Q 38.671875 46.4375 44.84375 39.96875 
Q 51.03125 33.5 51.03125 23.25 
Q 51.03125 16.5 48.125 10.71875 
Q 45.21875 4.9375 40.140625 1.859375 
Q 35.0625 -1.21875 28.609375 -1.21875 
Q 17.625 -1.21875 10.6875 6.859375 
Q 3.765625 14.9375 3.765625 33.5 
Q 3.765625 54.25 11.421875 63.671875 
Q 18.109375 71.875 29.4375 71.875 
Q 37.890625 71.875 43.28125 67.140625 
Q 48.6875 62.40625 49.75 54.046875 
z
M 13.875 23.1875 
Q 13.875 18.65625 15.796875 14.5 
Q 17.71875 10.359375 21.1875 8.171875 
Q 24.65625 6 28.46875 6 
Q 34.03125 6 38.03125 10.484375 
Q 42.046875 14.984375 42.046875 22.703125 
Q 42.046875 30.125 38.078125 34.390625 
Q 34.125 38.671875 28.125 38.671875 
Q 22.171875 38.671875 18.015625 34.390625 
Q 13.875 30.125 13.875 23.1875 
z
" id="ArialMT-36"/>
      </defs>
      <g style="fill:#262626;" transform="translate(595.119181 676.4525)scale(0.16 -0.16)">
       <use xlink:href="#ArialMT-36"/>
       <use x="55.615234" xlink:href="#ArialMT-30"/>
       <use x="111.230469" xlink:href="#ArialMT-30"/>
      </g>
     </g>
    </g>
    <g id="xtick_5">
     <g id="line2d_9">
      <path clip-path="url(#p5b3aa7c458)" d="M 755.787241 661.5 
L 755.787241 90.72 
" style="fill:none;stroke:#cccccc;stroke-linecap:round;stroke-width:0.8;"/>
     </g>
     <g id="line2d_10"/>
     <g id="text_5">
      <!-- 800 -->
      <defs>
       <path d="M 17.671875 38.8125 
Q 12.203125 40.828125 9.5625 44.53125 
Q 6.9375 48.25 6.9375 53.421875 
Q 6.9375 61.234375 12.546875 66.546875 
Q 18.171875 71.875 27.484375 71.875 
Q 36.859375 71.875 42.578125 66.421875 
Q 48.296875 60.984375 48.296875 53.171875 
Q 48.296875 48.1875 45.671875 44.5 
Q 43.0625 40.828125 37.75 38.8125 
Q 44.34375 36.671875 47.78125 31.875 
Q 51.21875 27.09375 51.21875 20.453125 
Q 51.21875 11.28125 44.71875 5.03125 
Q 38.234375 -1.21875 27.640625 -1.21875 
Q 17.046875 -1.21875 10.546875 5.046875 
Q 4.046875 11.328125 4.046875 20.703125 
Q 4.046875 27.6875 7.59375 32.390625 
Q 11.140625 37.109375 17.671875 38.8125 
z
M 15.921875 53.71875 
Q 15.921875 48.640625 19.1875 45.40625 
Q 22.46875 42.1875 27.6875 42.1875 
Q 32.765625 42.1875 36.015625 45.375 
Q 39.265625 48.578125 39.265625 53.21875 
Q 39.265625 58.0625 35.90625 61.359375 
Q 32.5625 64.65625 27.59375 64.65625 
Q 22.5625 64.65625 19.234375 61.421875 
Q 15.921875 58.203125 15.921875 53.71875 
z
M 13.09375 20.65625 
Q 13.09375 16.890625 14.875 13.375 
Q 16.65625 9.859375 20.171875 7.921875 
Q 23.6875 6 27.734375 6 
Q 34.03125 6 38.125 10.046875 
Q 42.234375 14.109375 42.234375 20.359375 
Q 42.234375 26.703125 38.015625 30.859375 
Q 33.796875 35.015625 27.4375 35.015625 
Q 21.234375 35.015625 17.15625 30.90625 
Q 13.09375 26.8125 13.09375 20.65625 
z
" id="ArialMT-38"/>
      </defs>
      <g style="fill:#262626;" transform="translate(742.440991 676.4525)scale(0.16 -0.16)">
       <use xlink:href="#ArialMT-38"/>
       <use x="55.615234" xlink:href="#ArialMT-30"/>
       <use x="111.230469" xlink:href="#ArialMT-30"/>
      </g>
     </g>
    </g>
    <g id="xtick_6">
     <g id="line2d_11">
      <path clip-path="url(#p5b3aa7c458)" d="M 903.109051 661.5 
L 903.109051 90.72 
" style="fill:none;stroke:#cccccc;stroke-linecap:round;stroke-width:0.8;"/>
     </g>
     <g id="line2d_12"/>
     <g id="text_6">
      <!-- 1000 -->
      <defs>
       <path d="M 37.25 0 
L 28.46875 0 
L 28.46875 56 
Q 25.296875 52.984375 20.140625 49.953125 
Q 14.984375 46.921875 10.890625 45.40625 
L 10.890625 53.90625 
Q 18.265625 57.375 23.78125 62.296875 
Q 29.296875 67.234375 31.59375 71.875 
L 37.25 71.875 
z
" id="ArialMT-31"/>
      </defs>
      <g style="fill:#262626;" transform="translate(885.314051 676.4525)scale(0.16 -0.16)">
       <use xlink:href="#ArialMT-31"/>
       <use x="55.615234" xlink:href="#ArialMT-30"/>
       <use x="111.230469" xlink:href="#ArialMT-30"/>
       <use x="166.845703" xlink:href="#ArialMT-30"/>
      </g>
     </g>
    </g>
    <g id="xtick_7">
     <g id="line2d_13">
      <path clip-path="url(#p5b3aa7c458)" d="M 1050.430861 661.5 
L 1050.430861 90.72 
" style="fill:none;stroke:#cccccc;stroke-linecap:round;stroke-width:0.8;"/>
     </g>
     <g id="line2d_14"/>
     <g id="text_7">
      <!-- 1200 -->
      <g style="fill:#262626;" transform="translate(1032.635861 676.4525)scale(0.16 -0.16)">
       <use xlink:href="#ArialMT-31"/>
       <use x="55.615234" xlink:href="#ArialMT-32"/>
       <use x="111.230469" xlink:href="#ArialMT-30"/>
       <use x="166.845703" xlink:href="#ArialMT-30"/>
      </g>
     </g>
    </g>
    <g id="xtick_8">
     <g id="line2d_15">
      <path clip-path="url(#p5b3aa7c458)" d="M 1197.752672 661.5 
L 1197.752672 90.72 
" style="fill:none;stroke:#cccccc;stroke-linecap:round;stroke-width:0.8;"/>
     </g>
     <g id="line2d_16"/>
     <g id="text_8">
      <!-- 1400 -->
      <g style="fill:#262626;" transform="translate(1179.957672 676.4525)scale(0.16 -0.16)">
       <use xlink:href="#ArialMT-31"/>
       <use x="55.615234" xlink:href="#ArialMT-34"/>
       <use x="111.230469" xlink:href="#ArialMT-30"/>
       <use x="166.845703" xlink:href="#ArialMT-30"/>
      </g>
     </g>
    </g>
    <g id="text_9">
     <!-- Time-step (M) -->
     <defs>
      <path d="M 25.921875 0 
L 25.921875 63.140625 
L 2.34375 63.140625 
L 2.34375 71.578125 
L 59.078125 71.578125 
L 59.078125 63.140625 
L 35.40625 63.140625 
L 35.40625 0 
z
" id="ArialMT-54"/>
      <path d="M 6.640625 61.46875 
L 6.640625 71.578125 
L 15.4375 71.578125 
L 15.4375 61.46875 
z
M 6.640625 0 
L 6.640625 51.859375 
L 15.4375 51.859375 
L 15.4375 0 
z
" id="ArialMT-69"/>
      <path d="M 6.59375 0 
L 6.59375 51.859375 
L 14.453125 51.859375 
L 14.453125 44.578125 
Q 16.890625 48.390625 20.9375 50.703125 
Q 25 53.03125 30.171875 53.03125 
Q 35.9375 53.03125 39.625 50.640625 
Q 43.3125 48.25 44.828125 43.953125 
Q 50.984375 53.03125 60.84375 53.03125 
Q 68.5625 53.03125 72.703125 48.75 
Q 76.859375 44.484375 76.859375 35.59375 
L 76.859375 0 
L 68.109375 0 
L 68.109375 32.671875 
Q 68.109375 37.9375 67.25 40.25 
Q 66.40625 42.578125 64.15625 43.984375 
Q 61.921875 45.40625 58.890625 45.40625 
Q 53.421875 45.40625 49.796875 41.765625 
Q 46.1875 38.140625 46.1875 30.125 
L 46.1875 0 
L 37.40625 0 
L 37.40625 33.6875 
Q 37.40625 39.546875 35.25 42.46875 
Q 33.109375 45.40625 28.21875 45.40625 
Q 24.515625 45.40625 21.359375 43.453125 
Q 18.21875 41.5 16.796875 37.734375 
Q 15.375 33.984375 15.375 26.90625 
L 15.375 0 
z
" id="ArialMT-6d"/>
      <path d="M 42.09375 16.703125 
L 51.171875 15.578125 
Q 49.03125 7.625 43.21875 3.21875 
Q 37.40625 -1.171875 28.375 -1.171875 
Q 17 -1.171875 10.328125 5.828125 
Q 3.65625 12.84375 3.65625 25.484375 
Q 3.65625 38.578125 10.390625 45.796875 
Q 17.140625 53.03125 27.875 53.03125 
Q 38.28125 53.03125 44.875 45.953125 
Q 51.46875 38.875 51.46875 26.03125 
Q 51.46875 25.25 51.421875 23.6875 
L 12.75 23.6875 
Q 13.234375 15.140625 17.578125 10.59375 
Q 21.921875 6.0625 28.421875 6.0625 
Q 33.25 6.0625 36.671875 8.59375 
Q 40.09375 11.140625 42.09375 16.703125 
z
M 13.234375 30.90625 
L 42.1875 30.90625 
Q 41.609375 37.453125 38.875 40.71875 
Q 34.671875 45.796875 27.984375 45.796875 
Q 21.921875 45.796875 17.796875 41.75 
Q 13.671875 37.703125 13.234375 30.90625 
z
" id="ArialMT-65"/>
      <path d="M 3.171875 21.484375 
L 3.171875 30.328125 
L 30.171875 30.328125 
L 30.171875 21.484375 
z
" id="ArialMT-2d"/>
      <path d="M 3.078125 15.484375 
L 11.765625 16.84375 
Q 12.5 11.625 15.84375 8.84375 
Q 19.1875 6.0625 25.203125 6.0625 
Q 31.25 6.0625 34.171875 8.515625 
Q 37.109375 10.984375 37.109375 14.3125 
Q 37.109375 17.28125 34.515625 19 
Q 32.71875 20.171875 25.53125 21.96875 
Q 15.875 24.421875 12.140625 26.203125 
Q 8.40625 27.984375 6.46875 31.125 
Q 4.546875 34.28125 4.546875 38.09375 
Q 4.546875 41.546875 6.125 44.5 
Q 7.71875 47.46875 10.453125 49.421875 
Q 12.5 50.921875 16.03125 51.96875 
Q 19.578125 53.03125 23.640625 53.03125 
Q 29.734375 53.03125 34.34375 51.265625 
Q 38.96875 49.515625 41.15625 46.5 
Q 43.359375 43.5 44.1875 38.484375 
L 35.59375 37.3125 
Q 35.015625 41.3125 32.203125 43.546875 
Q 29.390625 45.796875 24.265625 45.796875 
Q 18.21875 45.796875 15.625 43.796875 
Q 13.03125 41.796875 13.03125 39.109375 
Q 13.03125 37.40625 14.109375 36.03125 
Q 15.1875 34.625 17.484375 33.6875 
Q 18.796875 33.203125 25.25 31.453125 
Q 34.578125 28.953125 38.25 27.359375 
Q 41.9375 25.78125 44.03125 22.75 
Q 46.140625 19.734375 46.140625 15.234375 
Q 46.140625 10.84375 43.578125 6.953125 
Q 41.015625 3.078125 36.171875 0.953125 
Q 31.34375 -1.171875 25.25 -1.171875 
Q 15.140625 -1.171875 9.84375 3.03125 
Q 4.546875 7.234375 3.078125 15.484375 
z
" id="ArialMT-73"/>
      <path d="M 25.78125 7.859375 
L 27.046875 0.09375 
Q 23.34375 -0.6875 20.40625 -0.6875 
Q 15.625 -0.6875 12.984375 0.828125 
Q 10.359375 2.34375 9.28125 4.8125 
Q 8.203125 7.28125 8.203125 15.1875 
L 8.203125 45.015625 
L 1.765625 45.015625 
L 1.765625 51.859375 
L 8.203125 51.859375 
L 8.203125 64.703125 
L 16.9375 69.96875 
L 16.9375 51.859375 
L 25.78125 51.859375 
L 25.78125 45.015625 
L 16.9375 45.015625 
L 16.9375 14.703125 
Q 16.9375 10.9375 17.40625 9.859375 
Q 17.875 8.796875 18.921875 8.15625 
Q 19.96875 7.515625 21.921875 7.515625 
Q 23.390625 7.515625 25.78125 7.859375 
z
" id="ArialMT-74"/>
      <path d="M 6.59375 -19.875 
L 6.59375 51.859375 
L 14.59375 51.859375 
L 14.59375 45.125 
Q 17.4375 49.078125 21 51.046875 
Q 24.5625 53.03125 29.640625 53.03125 
Q 36.28125 53.03125 41.359375 49.609375 
Q 46.4375 46.1875 49.015625 39.953125 
Q 51.609375 33.734375 51.609375 26.3125 
Q 51.609375 18.359375 48.75 11.984375 
Q 45.90625 5.609375 40.453125 2.21875 
Q 35.015625 -1.171875 29 -1.171875 
Q 24.609375 -1.171875 21.109375 0.6875 
Q 17.625 2.546875 15.375 5.375 
L 15.375 -19.875 
z
M 14.546875 25.640625 
Q 14.546875 15.625 18.59375 10.84375 
Q 22.65625 6.0625 28.421875 6.0625 
Q 34.28125 6.0625 38.453125 11.015625 
Q 42.625 15.96875 42.625 26.375 
Q 42.625 36.28125 38.546875 41.203125 
Q 34.46875 46.140625 28.8125 46.140625 
Q 23.1875 46.140625 18.859375 40.890625 
Q 14.546875 35.640625 14.546875 25.640625 
z
" id="ArialMT-70"/>
      <path id="ArialMT-20"/>
      <path d="M 23.390625 -21.046875 
Q 16.109375 -11.859375 11.078125 0.4375 
Q 6.0625 12.75 6.0625 25.921875 
Q 6.0625 37.546875 9.8125 48.1875 
Q 14.203125 60.546875 23.390625 72.796875 
L 29.6875 72.796875 
Q 23.78125 62.640625 21.875 58.296875 
Q 18.890625 51.5625 17.1875 44.234375 
Q 15.09375 35.109375 15.09375 25.875 
Q 15.09375 2.390625 29.6875 -21.046875 
z
" id="ArialMT-28"/>
      <path d="M 7.421875 0 
L 7.421875 71.578125 
L 21.6875 71.578125 
L 38.625 20.90625 
Q 40.96875 13.8125 42.046875 10.296875 
Q 43.265625 14.203125 45.84375 21.78125 
L 62.984375 71.578125 
L 75.734375 71.578125 
L 75.734375 0 
L 66.609375 0 
L 66.609375 59.90625 
L 45.796875 0 
L 37.25 0 
L 16.546875 60.9375 
L 16.546875 0 
z
" id="ArialMT-4d"/>
      <path d="M 12.359375 -21.046875 
L 6.0625 -21.046875 
Q 20.65625 2.390625 20.65625 25.875 
Q 20.65625 35.0625 18.5625 44.09375 
Q 16.890625 51.421875 13.921875 58.15625 
Q 12.015625 62.546875 6.0625 72.796875 
L 12.359375 72.796875 
Q 21.53125 60.546875 25.921875 48.1875 
Q 29.6875 37.546875 29.6875 25.921875 
Q 29.6875 12.75 24.625 0.4375 
Q 19.578125 -11.859375 12.359375 -21.046875 
z
" id="ArialMT-29"/>
     </defs>
     <g style="fill:#262626;" transform="translate(632.88 695.28)scale(0.16 -0.16)">
      <use xlink:href="#ArialMT-54"/>
      <use x="61.037109" xlink:href="#ArialMT-69"/>
      <use x="83.253906" xlink:href="#ArialMT-6d"/>
      <use x="166.554688" xlink:href="#ArialMT-65"/>
      <use x="222.169922" xlink:href="#ArialMT-2d"/>
      <use x="255.470703" xlink:href="#ArialMT-73"/>
      <use x="305.470703" xlink:href="#ArialMT-74"/>
      <use x="333.253906" xlink:href="#ArialMT-65"/>
      <use x="388.869141" xlink:href="#ArialMT-70"/>
      <use x="444.484375" xlink:href="#ArialMT-20"/>
      <use x="472.267578" xlink:href="#ArialMT-28"/>
      <use x="505.568359" xlink:href="#ArialMT-4d"/>
      <use x="588.869141" xlink:href="#ArialMT-29"/>
     </g>
    </g>
   </g>
   <g id="matplotlib.axis_2">
    <g id="ytick_1">
     <g id="line2d_17">
      <path clip-path="url(#p5b3aa7c458)" d="M 166.5 619.587889 
L 1198.8 619.587889 
" style="fill:none;stroke:#cccccc;stroke-linecap:round;stroke-width:0.8;"/>
     </g>
     <g id="line2d_18"/>
     <g id="text_10">
      <!-- −5 -->
      <defs>
       <path d="M 52.828125 31.203125 
L 5.5625 31.203125 
L 5.5625 39.40625 
L 52.828125 39.40625 
z
" id="ArialMT-2212"/>
       <path d="M 4.15625 18.75 
L 13.375 19.53125 
Q 14.40625 12.796875 18.140625 9.390625 
Q 21.875 6 27.15625 6 
Q 33.5 6 37.890625 10.78125 
Q 42.28125 15.578125 42.28125 23.484375 
Q 42.28125 31 38.0625 35.34375 
Q 33.84375 39.703125 27 39.703125 
Q 22.75 39.703125 19.328125 37.765625 
Q 15.921875 35.84375 13.96875 32.765625 
L 5.71875 33.84375 
L 12.640625 70.609375 
L 48.25 70.609375 
L 48.25 62.203125 
L 19.671875 62.203125 
L 15.828125 42.96875 
Q 22.265625 47.46875 29.34375 47.46875 
Q 38.71875 47.46875 45.15625 40.96875 
Q 51.609375 34.46875 51.609375 24.265625 
Q 51.609375 14.546875 45.953125 7.46875 
Q 39.0625 -1.21875 27.15625 -1.21875 
Q 17.390625 -1.21875 11.203125 4.25 
Q 5.03125 9.71875 4.15625 18.75 
z
" id="ArialMT-35"/>
      </defs>
      <g style="fill:#262626;" transform="translate(144.7575 625.314139)scale(0.16 -0.16)">
       <use xlink:href="#ArialMT-2212"/>
       <use x="58.398438" xlink:href="#ArialMT-35"/>
      </g>
     </g>
    </g>
    <g id="ytick_2">
     <g id="line2d_19">
      <path clip-path="url(#p5b3aa7c458)" d="M 166.5 552.497276 
L 1198.8 552.497276 
" style="fill:none;stroke:#cccccc;stroke-linecap:round;stroke-width:0.8;"/>
     </g>
     <g id="line2d_20"/>
     <g id="text_11">
      <!-- −4 -->
      <g style="fill:#262626;" transform="translate(144.7575 558.223526)scale(0.16 -0.16)">
       <use xlink:href="#ArialMT-2212"/>
       <use x="58.398438" xlink:href="#ArialMT-34"/>
      </g>
     </g>
    </g>
    <g id="ytick_3">
     <g id="line2d_21">
      <path clip-path="url(#p5b3aa7c458)" d="M 166.5 485.406664 
L 1198.8 485.406664 
" style="fill:none;stroke:#cccccc;stroke-linecap:round;stroke-width:0.8;"/>
     </g>
     <g id="line2d_22"/>
     <g id="text_12">
      <!-- −3 -->
      <defs>
       <path d="M 4.203125 18.890625 
L 12.984375 20.0625 
Q 14.5 12.59375 18.140625 9.296875 
Q 21.78125 6 27 6 
Q 33.203125 6 37.46875 10.296875 
Q 41.75 14.59375 41.75 20.953125 
Q 41.75 27 37.796875 30.921875 
Q 33.84375 34.859375 27.734375 34.859375 
Q 25.25 34.859375 21.53125 33.890625 
L 22.515625 41.609375 
Q 23.390625 41.5 23.921875 41.5 
Q 29.546875 41.5 34.03125 44.421875 
Q 38.53125 47.359375 38.53125 53.46875 
Q 38.53125 58.296875 35.25 61.46875 
Q 31.984375 64.65625 26.8125 64.65625 
Q 21.6875 64.65625 18.265625 61.421875 
Q 14.84375 58.203125 13.875 51.765625 
L 5.078125 53.328125 
Q 6.6875 62.15625 12.390625 67.015625 
Q 18.109375 71.875 26.609375 71.875 
Q 32.46875 71.875 37.390625 69.359375 
Q 42.328125 66.84375 44.9375 62.5 
Q 47.5625 58.15625 47.5625 53.265625 
Q 47.5625 48.640625 45.0625 44.828125 
Q 42.578125 41.015625 37.703125 38.765625 
Q 44.046875 37.3125 47.5625 32.6875 
Q 51.078125 28.078125 51.078125 21.140625 
Q 51.078125 11.765625 44.234375 5.25 
Q 37.40625 -1.265625 26.953125 -1.265625 
Q 17.53125 -1.265625 11.296875 4.34375 
Q 5.078125 9.96875 4.203125 18.890625 
z
" id="ArialMT-33"/>
      </defs>
      <g style="fill:#262626;" transform="translate(144.7575 491.132914)scale(0.16 -0.16)">
       <use xlink:href="#ArialMT-2212"/>
       <use x="58.398438" xlink:href="#ArialMT-33"/>
      </g>
     </g>
    </g>
    <g id="ytick_4">
     <g id="line2d_23">
      <path clip-path="url(#p5b3aa7c458)" d="M 166.5 418.316052 
L 1198.8 418.316052 
" style="fill:none;stroke:#cccccc;stroke-linecap:round;stroke-width:0.8;"/>
     </g>
     <g id="line2d_24"/>
     <g id="text_13">
      <!-- −2 -->
      <g style="fill:#262626;" transform="translate(144.7575 424.042302)scale(0.16 -0.16)">
       <use xlink:href="#ArialMT-2212"/>
       <use x="58.398438" xlink:href="#ArialMT-32"/>
      </g>
     </g>
    </g>
    <g id="ytick_5">
     <g id="line2d_25">
      <path clip-path="url(#p5b3aa7c458)" d="M 166.5 351.225439 
L 1198.8 351.225439 
" style="fill:none;stroke:#cccccc;stroke-linecap:round;stroke-width:0.8;"/>
     </g>
     <g id="line2d_26"/>
     <g id="text_14">
      <!-- −1 -->
      <g style="fill:#262626;" transform="translate(144.7575 356.951689)scale(0.16 -0.16)">
       <use xlink:href="#ArialMT-2212"/>
       <use x="58.398438" xlink:href="#ArialMT-31"/>
      </g>
     </g>
    </g>
    <g id="ytick_6">
     <g id="line2d_27">
      <path clip-path="url(#p5b3aa7c458)" d="M 166.5 284.134827 
L 1198.8 284.134827 
" style="fill:none;stroke:#cccccc;stroke-linecap:round;stroke-width:0.8;"/>
     </g>
     <g id="line2d_28"/>
     <g id="text_15">
      <!-- 0 -->
      <g style="fill:#262626;" transform="translate(154.1025 289.861077)scale(0.16 -0.16)">
       <use xlink:href="#ArialMT-30"/>
      </g>
     </g>
    </g>
    <g id="ytick_7">
     <g id="line2d_29">
      <path clip-path="url(#p5b3aa7c458)" d="M 166.5 217.044214 
L 1198.8 217.044214 
" style="fill:none;stroke:#cccccc;stroke-linecap:round;stroke-width:0.8;"/>
     </g>
     <g id="line2d_30"/>
     <g id="text_16">
      <!-- 1 -->
      <g style="fill:#262626;" transform="translate(154.1025 222.770464)scale(0.16 -0.16)">
       <use xlink:href="#ArialMT-31"/>
      </g>
     </g>
    </g>
    <g id="ytick_8">
     <g id="line2d_31">
      <path clip-path="url(#p5b3aa7c458)" d="M 166.5 149.953602 
L 1198.8 149.953602 
" style="fill:none;stroke:#cccccc;stroke-linecap:round;stroke-width:0.8;"/>
     </g>
     <g id="line2d_32"/>
     <g id="text_17">
      <!-- 2 -->
      <g style="fill:#262626;" transform="translate(154.1025 155.679852)scale(0.16 -0.16)">
       <use xlink:href="#ArialMT-32"/>
      </g>
     </g>
    </g>
    <g id="text_18">
     <!-- Average Score vs Baseline Policy -->
     <defs>
      <path d="M -0.140625 0 
L 27.34375 71.578125 
L 37.546875 71.578125 
L 66.84375 0 
L 56.0625 0 
L 47.703125 21.6875 
L 17.78125 21.6875 
L 9.90625 0 
z
M 20.515625 29.390625 
L 44.78125 29.390625 
L 37.3125 49.21875 
Q 33.890625 58.25 32.234375 64.0625 
Q 30.859375 57.171875 28.375 50.390625 
z
" id="ArialMT-41"/>
      <path d="M 21 0 
L 1.265625 51.859375 
L 10.546875 51.859375 
L 21.6875 20.796875 
Q 23.484375 15.765625 25 10.359375 
Q 26.171875 14.453125 28.265625 20.21875 
L 39.796875 51.859375 
L 48.828125 51.859375 
L 29.203125 0 
z
" id="ArialMT-76"/>
      <path d="M 6.5 0 
L 6.5 51.859375 
L 14.40625 51.859375 
L 14.40625 44 
Q 17.4375 49.515625 20 51.265625 
Q 22.5625 53.03125 25.640625 53.03125 
Q 30.078125 53.03125 34.671875 50.203125 
L 31.640625 42.046875 
Q 28.421875 43.953125 25.203125 43.953125 
Q 22.3125 43.953125 20.015625 42.21875 
Q 17.71875 40.484375 16.75 37.40625 
Q 15.28125 32.71875 15.28125 27.15625 
L 15.28125 0 
z
" id="ArialMT-72"/>
      <path d="M 40.4375 6.390625 
Q 35.546875 2.25 31.03125 0.53125 
Q 26.515625 -1.171875 21.34375 -1.171875 
Q 12.796875 -1.171875 8.203125 3 
Q 3.609375 7.171875 3.609375 13.671875 
Q 3.609375 17.484375 5.34375 20.625 
Q 7.078125 23.78125 9.890625 25.6875 
Q 12.703125 27.59375 16.21875 28.5625 
Q 18.796875 29.25 24.03125 29.890625 
Q 34.671875 31.15625 39.703125 32.90625 
Q 39.75 34.71875 39.75 35.203125 
Q 39.75 40.578125 37.25 42.78125 
Q 33.890625 45.75 27.25 45.75 
Q 21.046875 45.75 18.09375 43.578125 
Q 15.140625 41.40625 13.71875 35.890625 
L 5.125 37.0625 
Q 6.296875 42.578125 8.984375 45.96875 
Q 11.671875 49.359375 16.75 51.1875 
Q 21.828125 53.03125 28.515625 53.03125 
Q 35.15625 53.03125 39.296875 51.46875 
Q 43.453125 49.90625 45.40625 47.53125 
Q 47.359375 45.171875 48.140625 41.546875 
Q 48.578125 39.3125 48.578125 33.453125 
L 48.578125 21.734375 
Q 48.578125 9.46875 49.140625 6.21875 
Q 49.703125 2.984375 51.375 0 
L 42.1875 0 
Q 40.828125 2.734375 40.4375 6.390625 
z
M 39.703125 26.03125 
Q 34.90625 24.078125 25.34375 22.703125 
Q 19.921875 21.921875 17.671875 20.9375 
Q 15.4375 19.96875 14.203125 18.09375 
Q 12.984375 16.21875 12.984375 13.921875 
Q 12.984375 10.40625 15.640625 8.0625 
Q 18.3125 5.71875 23.4375 5.71875 
Q 28.515625 5.71875 32.46875 7.9375 
Q 36.421875 10.15625 38.28125 14.015625 
Q 39.703125 17 39.703125 22.796875 
z
" id="ArialMT-61"/>
      <path d="M 4.984375 -4.296875 
L 13.53125 -5.5625 
Q 14.0625 -9.515625 16.5 -11.328125 
Q 19.78125 -13.765625 25.4375 -13.765625 
Q 31.546875 -13.765625 34.859375 -11.328125 
Q 38.1875 -8.890625 39.359375 -4.5 
Q 40.046875 -1.8125 39.984375 6.78125 
Q 34.234375 0 25.640625 0 
Q 14.9375 0 9.078125 7.71875 
Q 3.21875 15.4375 3.21875 26.21875 
Q 3.21875 33.640625 5.90625 39.90625 
Q 8.59375 46.1875 13.6875 49.609375 
Q 18.796875 53.03125 25.6875 53.03125 
Q 34.859375 53.03125 40.828125 45.609375 
L 40.828125 51.859375 
L 48.921875 51.859375 
L 48.921875 7.03125 
Q 48.921875 -5.078125 46.453125 -10.125 
Q 44 -15.1875 38.640625 -18.109375 
Q 33.296875 -21.046875 25.484375 -21.046875 
Q 16.21875 -21.046875 10.5 -16.875 
Q 4.78125 -12.703125 4.984375 -4.296875 
z
M 12.25 26.859375 
Q 12.25 16.65625 16.296875 11.96875 
Q 20.359375 7.28125 26.46875 7.28125 
Q 32.515625 7.28125 36.609375 11.9375 
Q 40.71875 16.609375 40.71875 26.5625 
Q 40.71875 36.078125 36.5 40.90625 
Q 32.28125 45.75 26.3125 45.75 
Q 20.453125 45.75 16.34375 40.984375 
Q 12.25 36.234375 12.25 26.859375 
z
" id="ArialMT-67"/>
      <path d="M 4.5 23 
L 13.421875 23.78125 
Q 14.0625 18.40625 16.375 14.96875 
Q 18.703125 11.53125 23.578125 9.40625 
Q 28.46875 7.28125 34.578125 7.28125 
Q 39.984375 7.28125 44.140625 8.890625 
Q 48.296875 10.5 50.3125 13.296875 
Q 52.34375 16.109375 52.34375 19.4375 
Q 52.34375 22.796875 50.390625 25.3125 
Q 48.4375 27.828125 43.953125 29.546875 
Q 41.0625 30.671875 31.203125 33.03125 
Q 21.34375 35.40625 17.390625 37.5 
Q 12.25 40.1875 9.734375 44.15625 
Q 7.234375 48.140625 7.234375 53.078125 
Q 7.234375 58.5 10.296875 63.203125 
Q 13.375 67.921875 19.28125 70.359375 
Q 25.203125 72.796875 32.421875 72.796875 
Q 40.375 72.796875 46.453125 70.234375 
Q 52.546875 67.671875 55.8125 62.6875 
Q 59.078125 57.71875 59.328125 51.421875 
L 50.25 50.734375 
Q 49.515625 57.515625 45.28125 60.984375 
Q 41.0625 64.453125 32.8125 64.453125 
Q 24.21875 64.453125 20.28125 61.296875 
Q 16.359375 58.15625 16.359375 53.71875 
Q 16.359375 49.859375 19.140625 47.359375 
Q 21.875 44.875 33.421875 42.265625 
Q 44.96875 39.65625 49.265625 37.703125 
Q 55.515625 34.8125 58.484375 30.390625 
Q 61.46875 25.984375 61.46875 20.21875 
Q 61.46875 14.5 58.203125 9.4375 
Q 54.9375 4.390625 48.796875 1.578125 
Q 42.671875 -1.21875 35.015625 -1.21875 
Q 25.296875 -1.21875 18.71875 1.609375 
Q 12.15625 4.4375 8.421875 10.125 
Q 4.6875 15.828125 4.5 23 
z
" id="ArialMT-53"/>
      <path d="M 40.4375 19 
L 49.078125 17.875 
Q 47.65625 8.9375 41.8125 3.875 
Q 35.984375 -1.171875 27.484375 -1.171875 
Q 16.84375 -1.171875 10.375 5.78125 
Q 3.90625 12.75 3.90625 25.734375 
Q 3.90625 34.125 6.6875 40.421875 
Q 9.46875 46.734375 15.15625 49.875 
Q 20.84375 53.03125 27.546875 53.03125 
Q 35.984375 53.03125 41.359375 48.75 
Q 46.734375 44.484375 48.25 36.625 
L 39.703125 35.296875 
Q 38.484375 40.53125 35.375 43.15625 
Q 32.28125 45.796875 27.875 45.796875 
Q 21.234375 45.796875 17.078125 41.03125 
Q 12.9375 36.28125 12.9375 25.984375 
Q 12.9375 15.53125 16.9375 10.796875 
Q 20.953125 6.0625 27.390625 6.0625 
Q 32.5625 6.0625 36.03125 9.234375 
Q 39.5 12.40625 40.4375 19 
z
" id="ArialMT-63"/>
      <path d="M 3.328125 25.921875 
Q 3.328125 40.328125 11.328125 47.265625 
Q 18.015625 53.03125 27.640625 53.03125 
Q 38.328125 53.03125 45.109375 46.015625 
Q 51.90625 39.015625 51.90625 26.65625 
Q 51.90625 16.65625 48.90625 10.90625 
Q 45.90625 5.171875 40.15625 2 
Q 34.421875 -1.171875 27.640625 -1.171875 
Q 16.75 -1.171875 10.03125 5.8125 
Q 3.328125 12.796875 3.328125 25.921875 
z
M 12.359375 25.921875 
Q 12.359375 15.96875 16.703125 11.015625 
Q 21.046875 6.0625 27.640625 6.0625 
Q 34.1875 6.0625 38.53125 11.03125 
Q 42.875 16.015625 42.875 26.21875 
Q 42.875 35.84375 38.5 40.796875 
Q 34.125 45.75 27.640625 45.75 
Q 21.046875 45.75 16.703125 40.8125 
Q 12.359375 35.890625 12.359375 25.921875 
z
" id="ArialMT-6f"/>
      <path d="M 7.328125 0 
L 7.328125 71.578125 
L 34.1875 71.578125 
Q 42.390625 71.578125 47.34375 69.40625 
Q 52.296875 67.234375 55.09375 62.71875 
Q 57.90625 58.203125 57.90625 53.265625 
Q 57.90625 48.6875 55.421875 44.625 
Q 52.9375 40.578125 47.90625 38.09375 
Q 54.390625 36.1875 57.875 31.59375 
Q 61.375 27 61.375 20.75 
Q 61.375 15.71875 59.25 11.390625 
Q 57.125 7.078125 54 4.734375 
Q 50.875 2.390625 46.15625 1.1875 
Q 41.453125 0 34.625 0 
z
M 16.796875 41.5 
L 32.28125 41.5 
Q 38.578125 41.5 41.3125 42.328125 
Q 44.921875 43.40625 46.75 45.890625 
Q 48.578125 48.390625 48.578125 52.15625 
Q 48.578125 55.71875 46.875 58.421875 
Q 45.171875 61.140625 41.984375 62.140625 
Q 38.8125 63.140625 31.109375 63.140625 
L 16.796875 63.140625 
z
M 16.796875 8.453125 
L 34.625 8.453125 
Q 39.203125 8.453125 41.0625 8.796875 
Q 44.34375 9.375 46.53125 10.734375 
Q 48.734375 12.109375 50.140625 14.71875 
Q 51.5625 17.328125 51.5625 20.75 
Q 51.5625 24.75 49.515625 27.703125 
Q 47.46875 30.671875 43.828125 31.859375 
Q 40.1875 33.0625 33.34375 33.0625 
L 16.796875 33.0625 
z
" id="ArialMT-42"/>
      <path d="M 6.390625 0 
L 6.390625 71.578125 
L 15.1875 71.578125 
L 15.1875 0 
z
" id="ArialMT-6c"/>
      <path d="M 6.59375 0 
L 6.59375 51.859375 
L 14.5 51.859375 
L 14.5 44.484375 
Q 20.21875 53.03125 31 53.03125 
Q 35.6875 53.03125 39.625 51.34375 
Q 43.5625 49.65625 45.515625 46.921875 
Q 47.46875 44.1875 48.25 40.4375 
Q 48.734375 37.984375 48.734375 31.890625 
L 48.734375 0 
L 39.9375 0 
L 39.9375 31.546875 
Q 39.9375 36.921875 38.90625 39.578125 
Q 37.890625 42.234375 35.28125 43.8125 
Q 32.671875 45.40625 29.15625 45.40625 
Q 23.53125 45.40625 19.453125 41.84375 
Q 15.375 38.28125 15.375 28.328125 
L 15.375 0 
z
" id="ArialMT-6e"/>
      <path d="M 7.71875 0 
L 7.71875 71.578125 
L 34.71875 71.578125 
Q 41.84375 71.578125 45.609375 70.90625 
Q 50.875 70.015625 54.4375 67.546875 
Q 58.015625 65.09375 60.1875 60.640625 
Q 62.359375 56.203125 62.359375 50.875 
Q 62.359375 41.75 56.546875 35.421875 
Q 50.734375 29.109375 35.546875 29.109375 
L 17.1875 29.109375 
L 17.1875 0 
z
M 17.1875 37.546875 
L 35.6875 37.546875 
Q 44.875 37.546875 48.734375 40.96875 
Q 52.59375 44.390625 52.59375 50.59375 
Q 52.59375 55.078125 50.3125 58.265625 
Q 48.046875 61.46875 44.34375 62.5 
Q 41.9375 63.140625 35.5 63.140625 
L 17.1875 63.140625 
z
" id="ArialMT-50"/>
      <path d="M 6.203125 -19.96875 
L 5.21875 -11.71875 
Q 8.109375 -12.5 10.25 -12.5 
Q 13.1875 -12.5 14.9375 -11.515625 
Q 16.703125 -10.546875 17.828125 -8.796875 
Q 18.65625 -7.46875 20.515625 -2.25 
Q 20.75 -1.515625 21.296875 -0.09375 
L 1.609375 51.859375 
L 11.078125 51.859375 
L 21.875 21.828125 
Q 23.96875 16.109375 25.640625 9.8125 
Q 27.15625 15.875 29.25 21.625 
L 40.328125 51.859375 
L 49.125 51.859375 
L 29.390625 -0.875 
Q 26.21875 -9.421875 24.46875 -12.640625 
Q 22.125 -17 19.09375 -19.015625 
Q 16.0625 -21.046875 11.859375 -21.046875 
Q 9.328125 -21.046875 6.203125 -19.96875 
z
" id="ArialMT-79"/>
     </defs>
     <g style="fill:#262626;" transform="translate(137.39 495.7175)rotate(-90)scale(0.16 -0.16)">
      <use xlink:href="#ArialMT-41"/>
      <use x="66.683594" xlink:href="#ArialMT-76"/>
      <use x="116.683594" xlink:href="#ArialMT-65"/>
      <use x="172.298828" xlink:href="#ArialMT-72"/>
      <use x="205.599609" xlink:href="#ArialMT-61"/>
      <use x="261.214844" xlink:href="#ArialMT-67"/>
      <use x="316.830078" xlink:href="#ArialMT-65"/>
      <use x="372.445312" xlink:href="#ArialMT-20"/>
      <use x="400.228516" xlink:href="#ArialMT-53"/>
      <use x="466.927734" xlink:href="#ArialMT-63"/>
      <use x="516.927734" xlink:href="#ArialMT-6f"/>
      <use x="572.542969" xlink:href="#ArialMT-72"/>
      <use x="605.84375" xlink:href="#ArialMT-65"/>
      <use x="661.458984" xlink:href="#ArialMT-20"/>
      <use x="689.242188" xlink:href="#ArialMT-76"/>
      <use x="739.242188" xlink:href="#ArialMT-73"/>
      <use x="789.242188" xlink:href="#ArialMT-20"/>
      <use x="817.025391" xlink:href="#ArialMT-42"/>
      <use x="883.724609" xlink:href="#ArialMT-61"/>
      <use x="939.339844" xlink:href="#ArialMT-73"/>
      <use x="989.339844" xlink:href="#ArialMT-65"/>
      <use x="1044.955078" xlink:href="#ArialMT-6c"/>
      <use x="1067.171875" xlink:href="#ArialMT-69"/>
      <use x="1089.388672" xlink:href="#ArialMT-6e"/>
      <use x="1145.003906" xlink:href="#ArialMT-65"/>
      <use x="1200.619141" xlink:href="#ArialMT-20"/>
      <use x="1228.402344" xlink:href="#ArialMT-50"/>
      <use x="1295.101562" xlink:href="#ArialMT-6f"/>
      <use x="1350.716797" xlink:href="#ArialMT-6c"/>
      <use x="1372.933594" xlink:href="#ArialMT-69"/>
      <use x="1395.150391" xlink:href="#ArialMT-63"/>
      <use x="1445.150391" xlink:href="#ArialMT-79"/>
     </g>
    </g>
   </g>
   <g id="LineCollection_1">
    <path clip-path="url(#p5b3aa7c458)" d="M 166.5 635.555455 
L 166.5 585.640039 
" style="fill:none;stroke:#cccccc;stroke-opacity:0.8;"/>
    <path clip-path="url(#p5b3aa7c458)" d="M 180.40303 481.89671 
L 180.40303 400.759553 
" style="fill:none;stroke:#cccccc;stroke-opacity:0.8;"/>
    <path clip-path="url(#p5b3aa7c458)" d="M 194.595707 421.029548 
L 194.595707 325.969497 
" style="fill:none;stroke:#cccccc;stroke-opacity:0.8;"/>
    <path clip-path="url(#p5b3aa7c458)" d="M 208.788384 391.101781 
L 208.788384 287.397749 
" style="fill:none;stroke:#cccccc;stroke-opacity:0.8;"/>
    <path clip-path="url(#p5b3aa7c458)" d="M 222.981061 371.751448 
L 222.981061 263.501473 
" style="fill:none;stroke:#cccccc;stroke-opacity:0.8;"/>
    <path clip-path="url(#p5b3aa7c458)" d="M 237.173737 302.59049 
L 237.173737 181.144992 
" style="fill:none;stroke:#cccccc;stroke-opacity:0.8;"/>
    <path clip-path="url(#p5b3aa7c458)" d="M 251.076768 295.242308 
L 251.076768 166.755815 
" style="fill:none;stroke:#cccccc;stroke-opacity:0.8;"/>
    <path clip-path="url(#p5b3aa7c458)" d="M 265.269444 294.117392 
L 265.269444 163.318569 
" style="fill:none;stroke:#cccccc;stroke-opacity:0.8;"/>
    <path clip-path="url(#p5b3aa7c458)" d="M 279.462121 290.904067 
L 279.462121 157.407572 
" style="fill:none;stroke:#cccccc;stroke-opacity:0.8;"/>
    <path clip-path="url(#p5b3aa7c458)" d="M 293.654798 288.991068 
L 293.654798 153.148234 
" style="fill:none;stroke:#cccccc;stroke-opacity:0.8;"/>
    <path clip-path="url(#p5b3aa7c458)" d="M 307.847475 286.574242 
L 307.847475 149.392723 
" style="fill:none;stroke:#cccccc;stroke-opacity:0.8;"/>
    <path clip-path="url(#p5b3aa7c458)" d="M 322.040152 286.442896 
L 322.040152 148.987345 
" style="fill:none;stroke:#cccccc;stroke-opacity:0.8;"/>
    <path clip-path="url(#p5b3aa7c458)" d="M 335.943182 285.887665 
L 335.943182 145.785502 
" style="fill:none;stroke:#cccccc;stroke-opacity:0.8;"/>
    <path clip-path="url(#p5b3aa7c458)" d="M 350.135859 285.366591 
L 350.135859 146.574938 
" style="fill:none;stroke:#cccccc;stroke-opacity:0.8;"/>
    <path clip-path="url(#p5b3aa7c458)" d="M 364.328535 285.634953 
L 364.328535 146.843301 
" style="fill:none;stroke:#cccccc;stroke-opacity:0.8;"/>
    <path clip-path="url(#p5b3aa7c458)" d="M 378.521212 284.162485 
L 378.521212 144.827057 
" style="fill:none;stroke:#cccccc;stroke-opacity:0.8;"/>
    <path clip-path="url(#p5b3aa7c458)" d="M 392.713889 282.686652 
L 392.713889 144.15599 
" style="fill:none;stroke:#cccccc;stroke-opacity:0.8;"/>
    <path clip-path="url(#p5b3aa7c458)" d="M 406.906566 281.206285 
L 406.906566 142.952733 
" style="fill:none;stroke:#cccccc;stroke-opacity:0.8;"/>
    <path clip-path="url(#p5b3aa7c458)" d="M 420.809596 281.603818 
L 420.809596 140.945025 
" style="fill:none;stroke:#cccccc;stroke-opacity:0.8;"/>
    <path clip-path="url(#p5b3aa7c458)" d="M 435.002273 280.527122 
L 435.002273 138.264647 
" style="fill:none;stroke:#cccccc;stroke-opacity:0.8;"/>
    <path clip-path="url(#p5b3aa7c458)" d="M 449.194949 281.199989 
L 449.194949 138.396868 
" style="fill:none;stroke:#cccccc;stroke-opacity:0.8;"/>
    <path clip-path="url(#p5b3aa7c458)" d="M 463.387626 281.722552 
L 463.387626 137.069217 
" style="fill:none;stroke:#cccccc;stroke-opacity:0.8;"/>
    <path clip-path="url(#p5b3aa7c458)" d="M 477.580303 281.184082 
L 477.580303 136.265875 
" style="fill:none;stroke:#cccccc;stroke-opacity:0.8;"/>
    <path clip-path="url(#p5b3aa7c458)" d="M 491.77298 279.976451 
L 491.77298 135.058243 
" style="fill:none;stroke:#cccccc;stroke-opacity:0.8;"/>
    <path clip-path="url(#p5b3aa7c458)" d="M 505.67601 280.110632 
L 505.67601 135.192425 
" style="fill:none;stroke:#cccccc;stroke-opacity:0.8;"/>
    <path clip-path="url(#p5b3aa7c458)" d="M 519.868687 279.708589 
L 519.868687 135.057743 
" style="fill:none;stroke:#cccccc;stroke-opacity:0.8;"/>
    <path clip-path="url(#p5b3aa7c458)" d="M 534.061364 278.100399 
L 534.061364 133.177222 
" style="fill:none;stroke:#cccccc;stroke-opacity:0.8;"/>
    <path clip-path="url(#p5b3aa7c458)" d="M 548.25404 278.908418 
L 548.25404 132.905927 
" style="fill:none;stroke:#cccccc;stroke-opacity:0.8;"/>
    <path clip-path="url(#p5b3aa7c458)" d="M 562.446717 279.044035 
L 562.446717 132.233586 
" style="fill:none;stroke:#cccccc;stroke-opacity:0.8;"/>
    <path clip-path="url(#p5b3aa7c458)" d="M 576.639394 277.839976 
L 576.639394 129.68057 
" style="fill:none;stroke:#cccccc;stroke-opacity:0.8;"/>
    <path clip-path="url(#p5b3aa7c458)" d="M 590.542424 277.307898 
L 590.542424 129.40756 
" style="fill:none;stroke:#cccccc;stroke-opacity:0.8;"/>
    <path clip-path="url(#p5b3aa7c458)" d="M 604.735101 277.851274 
L 604.735101 128.864185 
" style="fill:none;stroke:#cccccc;stroke-opacity:0.8;"/>
    <path clip-path="url(#p5b3aa7c458)" d="M 618.927778 276.914029 
L 618.927778 128.459618 
" style="fill:none;stroke:#cccccc;stroke-opacity:0.8;"/>
    <path clip-path="url(#p5b3aa7c458)" d="M 633.120455 276.924047 
L 633.120455 129.791412 
" style="fill:none;stroke:#cccccc;stroke-opacity:0.8;"/>
    <path clip-path="url(#p5b3aa7c458)" d="M 647.313131 276.378703 
L 647.313131 130.336756 
" style="fill:none;stroke:#cccccc;stroke-opacity:0.8;"/>
    <path clip-path="url(#p5b3aa7c458)" d="M 661.216162 275.601991 
L 661.216162 126.282944 
" style="fill:none;stroke:#cccccc;stroke-opacity:0.8;"/>
    <path clip-path="url(#p5b3aa7c458)" d="M 675.408838 274.658079 
L 675.408838 125.885043 
" style="fill:none;stroke:#cccccc;stroke-opacity:0.8;"/>
    <path clip-path="url(#p5b3aa7c458)" d="M 689.601515 273.188583 
L 689.601515 124.939278 
" style="fill:none;stroke:#cccccc;stroke-opacity:0.8;"/>
    <path clip-path="url(#p5b3aa7c458)" d="M 703.794192 272.639556 
L 703.794192 122.267955 
" style="fill:none;stroke:#cccccc;stroke-opacity:0.8;"/>
    <path clip-path="url(#p5b3aa7c458)" d="M 717.986869 274.379178 
L 717.986869 122.40687 
" style="fill:none;stroke:#cccccc;stroke-opacity:0.8;"/>
    <path clip-path="url(#p5b3aa7c458)" d="M 732.179545 274.899602 
L 732.179545 124.838433 
" style="fill:none;stroke:#cccccc;stroke-opacity:0.8;"/>
    <path clip-path="url(#p5b3aa7c458)" d="M 746.082576 274.899884 
L 746.082576 125.106513 
" style="fill:none;stroke:#cccccc;stroke-opacity:0.8;"/>
    <path clip-path="url(#p5b3aa7c458)" d="M 760.275253 275.02046 
L 760.275253 123.107401 
" style="fill:none;stroke:#cccccc;stroke-opacity:0.8;"/>
    <path clip-path="url(#p5b3aa7c458)" d="M 774.467929 274.752097 
L 774.467929 122.839038 
" style="fill:none;stroke:#cccccc;stroke-opacity:0.8;"/>
    <path clip-path="url(#p5b3aa7c458)" d="M 788.660606 273.140278 
L 788.660606 121.498871 
" style="fill:none;stroke:#cccccc;stroke-opacity:0.8;"/>
    <path clip-path="url(#p5b3aa7c458)" d="M 802.853283 273.281161 
L 802.853283 122.163075 
" style="fill:none;stroke:#cccccc;stroke-opacity:0.8;"/>
    <path clip-path="url(#p5b3aa7c458)" d="M 817.04596 274.22593 
L 817.04596 121.486669 
" style="fill:none;stroke:#cccccc;stroke-opacity:0.8;"/>
    <path clip-path="url(#p5b3aa7c458)" d="M 830.94899 274.230556 
L 830.94899 120.945317 
" style="fill:none;stroke:#cccccc;stroke-opacity:0.8;"/>
    <path clip-path="url(#p5b3aa7c458)" d="M 845.141667 274.367183 
L 845.141667 121.613778 
" style="fill:none;stroke:#cccccc;stroke-opacity:0.8;"/>
    <path clip-path="url(#p5b3aa7c458)" d="M 859.334343 274.777961 
L 859.334343 120.934637 
" style="fill:none;stroke:#cccccc;stroke-opacity:0.8;"/>
    <path clip-path="url(#p5b3aa7c458)" d="M 873.52702 274.488402 
L 873.52702 119.345659 
" style="fill:none;stroke:#cccccc;stroke-opacity:0.8;"/>
    <path clip-path="url(#p5b3aa7c458)" d="M 887.719697 275.173037 
L 887.719697 118.929386 
" style="fill:none;stroke:#cccccc;stroke-opacity:0.8;"/>
    <path clip-path="url(#p5b3aa7c458)" d="M 901.912374 275.852325 
L 901.912374 120.933723 
" style="fill:none;stroke:#cccccc;stroke-opacity:0.8;"/>
    <path clip-path="url(#p5b3aa7c458)" d="M 915.815404 275.575399 
L 915.815404 119.600474 
" style="fill:none;stroke:#cccccc;stroke-opacity:0.8;"/>
    <path clip-path="url(#p5b3aa7c458)" d="M 930.008081 274.90255 
L 930.008081 119.736598 
" style="fill:none;stroke:#cccccc;stroke-opacity:0.8;"/>
    <path clip-path="url(#p5b3aa7c458)" d="M 944.200758 274.502083 
L 944.200758 117.990166 
" style="fill:none;stroke:#cccccc;stroke-opacity:0.8;"/>
    <path clip-path="url(#p5b3aa7c458)" d="M 958.393434 272.612741 
L 958.393434 118.269333 
" style="fill:none;stroke:#cccccc;stroke-opacity:0.8;"/>
    <path clip-path="url(#p5b3aa7c458)" d="M 972.586111 272.473384 
L 972.586111 117.603603 
" style="fill:none;stroke:#cccccc;stroke-opacity:0.8;"/>
    <path clip-path="url(#p5b3aa7c458)" d="M 986.778788 272.876437 
L 986.778788 118.542362 
" style="fill:none;stroke:#cccccc;stroke-opacity:0.8;"/>
    <path clip-path="url(#p5b3aa7c458)" d="M 1000.681818 273.554952 
L 1000.681818 120.279109 
" style="fill:none;stroke:#cccccc;stroke-opacity:0.8;"/>
    <path clip-path="url(#p5b3aa7c458)" d="M 1014.874495 274.515144 
L 1014.874495 120.392367 
" style="fill:none;stroke:#cccccc;stroke-opacity:0.8;"/>
    <path clip-path="url(#p5b3aa7c458)" d="M 1029.067172 274.110896 
L 1029.067172 119.723165 
" style="fill:none;stroke:#cccccc;stroke-opacity:0.8;"/>
    <path clip-path="url(#p5b3aa7c458)" d="M 1043.259848 273.305041 
L 1043.259848 118.650483 
" style="fill:none;stroke:#cccccc;stroke-opacity:0.8;"/>
    <path clip-path="url(#p5b3aa7c458)" d="M 1057.452525 272.653263 
L 1057.452525 119.302261 
" style="fill:none;stroke:#cccccc;stroke-opacity:0.8;"/>
    <path clip-path="url(#p5b3aa7c458)" d="M 1071.355556 271.842357 
L 1071.355556 117.966267 
" style="fill:none;stroke:#cccccc;stroke-opacity:0.8;"/>
    <path clip-path="url(#p5b3aa7c458)" d="M 1085.548232 270.058429 
L 1085.548232 118.945108 
" style="fill:none;stroke:#cccccc;stroke-opacity:0.8;"/>
    <path clip-path="url(#p5b3aa7c458)" d="M 1099.740909 270.734514 
L 1099.740909 119.074111 
" style="fill:none;stroke:#cccccc;stroke-opacity:0.8;"/>
    <path clip-path="url(#p5b3aa7c458)" d="M 1113.933586 270.597563 
L 1113.933586 119.747786 
" style="fill:none;stroke:#cccccc;stroke-opacity:0.8;"/>
    <path clip-path="url(#p5b3aa7c458)" d="M 1128.126263 270.72333 
L 1128.126263 118.548569 
" style="fill:none;stroke:#cccccc;stroke-opacity:0.8;"/>
    <path clip-path="url(#p5b3aa7c458)" d="M 1142.318939 270.860301 
L 1142.318939 117.874873 
" style="fill:none;stroke:#cccccc;stroke-opacity:0.8;"/>
    <path clip-path="url(#p5b3aa7c458)" d="M 1156.22197 271.39509 
L 1156.22197 117.340084 
" style="fill:none;stroke:#cccccc;stroke-opacity:0.8;"/>
    <path clip-path="url(#p5b3aa7c458)" d="M 1170.414646 271.265542 
L 1170.414646 116.664545 
" style="fill:none;stroke:#cccccc;stroke-opacity:0.8;"/>
    <path clip-path="url(#p5b3aa7c458)" d="M 1184.607323 271.930835 
L 1184.607323 116.804339 
" style="fill:none;stroke:#cccccc;stroke-opacity:0.8;"/>
    <path clip-path="url(#p5b3aa7c458)" d="M 1198.8 273.271246 
L 1198.8 117.879191 
" style="fill:none;stroke:#cccccc;stroke-opacity:0.8;"/>
   </g>
   <g id="line2d_33">
    <path clip-path="url(#p5b3aa7c458)" d="M 166.5 610.597747 
L 180.40303 441.328132 
L 194.595707 373.499522 
L 208.788384 339.249765 
L 222.981061 317.62646 
L 237.173737 241.867741 
L 251.076768 230.999062 
L 265.269444 228.717981 
L 279.462121 224.155819 
L 293.654798 221.069651 
L 307.847475 217.983483 
L 322.040152 217.71512 
L 335.943182 215.836583 
L 350.135859 215.970764 
L 364.328535 216.239127 
L 378.521212 214.494771 
L 392.713889 213.421321 
L 406.906566 212.079509 
L 420.809596 211.274422 
L 435.002273 209.395884 
L 449.194949 209.798428 
L 463.387626 209.395884 
L 477.580303 208.724978 
L 491.77298 207.517347 
L 505.67601 207.651529 
L 519.868687 207.383166 
L 534.061364 205.63881 
L 548.25404 205.907173 
L 562.446717 205.63881 
L 576.639394 203.760273 
L 590.542424 203.357729 
L 604.735101 203.357729 
L 618.927778 202.686823 
L 633.120455 203.357729 
L 647.313131 203.357729 
L 661.216162 200.942467 
L 675.408838 200.271561 
L 689.601515 199.06393 
L 703.794192 197.453755 
L 717.986869 198.393024 
L 732.179545 199.869017 
L 746.082576 200.003199 
L 760.275253 199.06393 
L 774.467929 198.795568 
L 788.660606 197.319574 
L 802.853283 197.722118 
L 817.04596 197.856299 
L 830.94899 197.587937 
L 845.141667 197.99048 
L 859.334343 197.856299 
L 873.52702 196.917031 
L 887.719697 197.051212 
L 901.912374 198.393024 
L 915.815404 197.587937 
L 930.008081 197.319574 
L 944.200758 196.246124 
L 958.393434 195.441037 
L 972.586111 195.038493 
L 986.778788 195.7094 
L 1000.681818 196.917031 
L 1014.874495 197.453755 
L 1029.067172 196.917031 
L 1043.259848 195.977762 
L 1057.452525 195.977762 
L 1071.355556 194.904312 
L 1085.548232 194.501768 
L 1099.740909 194.904312 
L 1113.933586 195.172675 
L 1128.126263 194.63595 
L 1142.318939 194.367587 
L 1156.22197 194.367587 
L 1170.414646 193.965044 
L 1184.607323 194.367587 
L 1198.8 195.575218 
" style="fill:none;opacity:0.8;stroke:#000000;stroke-linecap:round;"/>
   </g>
   <g id="patch_3">
    <path d="M 166.5 661.5 
L 166.5 90.72 
" style="fill:none;stroke:#cccccc;stroke-linecap:square;stroke-linejoin:miter;"/>
   </g>
   <g id="patch_4">
    <path d="M 1198.8 661.5 
L 1198.8 90.72 
" style="fill:none;stroke:#cccccc;stroke-linecap:square;stroke-linejoin:miter;"/>
   </g>
   <g id="patch_5">
    <path d="M 166.5 661.5 
L 1198.8 661.5 
" style="fill:none;stroke:#cccccc;stroke-linecap:square;stroke-linejoin:miter;"/>
   </g>
   <g id="patch_6">
    <path d="M 166.5 90.72 
L 1198.8 90.72 
" style="fill:none;stroke:#cccccc;stroke-linecap:square;stroke-linejoin:miter;"/>
   </g>
   <g id="text_19">
    <!-- PPO (Multi-Thread) -->
    <defs>
     <path d="M 4.828125 34.859375 
Q 4.828125 52.6875 14.390625 62.765625 
Q 23.96875 72.859375 39.109375 72.859375 
Q 49.03125 72.859375 56.984375 68.109375 
Q 64.9375 63.375 69.109375 54.90625 
Q 73.296875 46.4375 73.296875 35.6875 
Q 73.296875 24.8125 68.890625 16.21875 
Q 64.5 7.625 56.4375 3.203125 
Q 48.390625 -1.21875 39.0625 -1.21875 
Q 28.953125 -1.21875 20.984375 3.65625 
Q 13.03125 8.546875 8.921875 16.984375 
Q 4.828125 25.4375 4.828125 34.859375 
z
M 14.59375 34.71875 
Q 14.59375 21.78125 21.546875 14.328125 
Q 28.515625 6.890625 39.015625 6.890625 
Q 49.703125 6.890625 56.609375 14.40625 
Q 63.53125 21.921875 63.53125 35.75 
Q 63.53125 44.484375 60.578125 51 
Q 57.625 57.515625 51.921875 61.109375 
Q 46.234375 64.703125 39.15625 64.703125 
Q 29.109375 64.703125 21.84375 57.78125 
Q 14.59375 50.875 14.59375 34.71875 
z
" id="ArialMT-4f"/>
     <path d="M 40.578125 0 
L 40.578125 7.625 
Q 34.515625 -1.171875 24.125 -1.171875 
Q 19.53125 -1.171875 15.546875 0.578125 
Q 11.578125 2.34375 9.640625 5 
Q 7.71875 7.671875 6.9375 11.53125 
Q 6.390625 14.109375 6.390625 19.734375 
L 6.390625 51.859375 
L 15.1875 51.859375 
L 15.1875 23.09375 
Q 15.1875 16.21875 15.71875 13.8125 
Q 16.546875 10.359375 19.234375 8.375 
Q 21.921875 6.390625 25.875 6.390625 
Q 29.828125 6.390625 33.296875 8.421875 
Q 36.765625 10.453125 38.203125 13.9375 
Q 39.65625 17.4375 39.65625 24.078125 
L 39.65625 51.859375 
L 48.4375 51.859375 
L 48.4375 0 
z
" id="ArialMT-75"/>
     <path d="M 6.59375 0 
L 6.59375 71.578125 
L 15.375 71.578125 
L 15.375 45.90625 
Q 21.53125 53.03125 30.90625 53.03125 
Q 36.671875 53.03125 40.921875 50.75 
Q 45.171875 48.484375 47 44.484375 
Q 48.828125 40.484375 48.828125 32.859375 
L 48.828125 0 
L 40.046875 0 
L 40.046875 32.859375 
Q 40.046875 39.453125 37.1875 42.453125 
Q 34.328125 45.453125 29.109375 45.453125 
Q 25.203125 45.453125 21.75 43.421875 
Q 18.3125 41.40625 16.84375 37.9375 
Q 15.375 34.46875 15.375 28.375 
L 15.375 0 
z
" id="ArialMT-68"/>
     <path d="M 40.234375 0 
L 40.234375 6.546875 
Q 35.296875 -1.171875 25.734375 -1.171875 
Q 19.53125 -1.171875 14.328125 2.25 
Q 9.125 5.671875 6.265625 11.796875 
Q 3.421875 17.921875 3.421875 25.875 
Q 3.421875 33.640625 6 39.96875 
Q 8.59375 46.296875 13.765625 49.65625 
Q 18.953125 53.03125 25.34375 53.03125 
Q 30.03125 53.03125 33.6875 51.046875 
Q 37.359375 49.078125 39.65625 45.90625 
L 39.65625 71.578125 
L 48.390625 71.578125 
L 48.390625 0 
z
M 12.453125 25.875 
Q 12.453125 15.921875 16.640625 10.984375 
Q 20.84375 6.0625 26.5625 6.0625 
Q 32.328125 6.0625 36.34375 10.765625 
Q 40.375 15.484375 40.375 25.140625 
Q 40.375 35.796875 36.265625 40.765625 
Q 32.171875 45.75 26.171875 45.75 
Q 20.3125 45.75 16.375 40.96875 
Q 12.453125 36.1875 12.453125 25.875 
z
" id="ArialMT-64"/>
    </defs>
    <g style="fill:#262626;" transform="translate(599.4375 84.72)scale(0.192 -0.192)">
     <use xlink:href="#ArialMT-50"/>
     <use x="66.699219" xlink:href="#ArialMT-50"/>
     <use x="133.398438" xlink:href="#ArialMT-4f"/>
     <use x="211.181641" xlink:href="#ArialMT-20"/>
     <use x="238.964844" xlink:href="#ArialMT-28"/>
     <use x="272.265625" xlink:href="#ArialMT-4d"/>
     <use x="355.566406" xlink:href="#ArialMT-75"/>
     <use x="411.181641" xlink:href="#ArialMT-6c"/>
     <use x="433.398438" xlink:href="#ArialMT-74"/>
     <use x="461.181641" xlink:href="#ArialMT-69"/>
     <use x="483.398438" xlink:href="#ArialMT-2d"/>
     <use x="516.699219" xlink:href="#ArialMT-54"/>
     <use x="577.783203" xlink:href="#ArialMT-68"/>
     <use x="633.398438" xlink:href="#ArialMT-72"/>
     <use x="666.699219" xlink:href="#ArialMT-65"/>
     <use x="722.314453" xlink:href="#ArialMT-61"/>
     <use x="777.929688" xlink:href="#ArialMT-64"/>
     <use x="833.544922" xlink:href="#ArialMT-29"/>
    </g>
   </g>
  </g>
 </g>
 <defs>
  <clipPath id="p5b3aa7c458">
   <rect height="570.78" width="1032.3" x="166.5" y="90.72"/>
  </clipPath>
 </defs>
</svg>
