<?xml version="1.0" encoding="utf-8" standalone="no"?>
<!DOCTYPE svg PUBLIC "-//W3C//DTD SVG 1.1//EN"
  "http://www.w3.org/Graphics/SVG/1.1/DTD/svg11.dtd">
<!-- Created with matplotlib (http://matplotlib.org/) -->
<svg height="756pt" version="1.1" viewBox="0 0 1332 756" width="1332pt" xmlns="http://www.w3.org/2000/svg" xmlns:xlink="http://www.w3.org/1999/xlink">
 <defs>
  <style type="text/css">
*{stroke-linecap:butt;stroke-linejoin:round;}
  </style>
 </defs>
 <g id="figure_1">
  <g id="patch_1">
   <path d="M 0 756 
L 1332 756 
L 1332 0 
L 0 0 
z
" style="fill:#ffffff;"/>
  </g>
  <g id="axes_1">
   <g id="patch_2">
    <path d="M 166.5 661.5 
L 1198.8 661.5 
L 1198.8 90.72 
L 166.5 90.72 
z
" style="fill:#ffffff;"/>
   </g>
   <g id="matplotlib.axis_1">
    <g id="xtick_1">
     <g id="line2d_1">
      <path clip-path="url(#p2341e2e7ce)" d="M 166.5 661.5 
L 166.5 90.72 
" style="fill:none;stroke:#cccccc;stroke-linecap:round;stroke-width:0.8;"/>
     </g>
     <g id="line2d_2"/>
     <g id="text_1">
      <!-- 0 -->
      <defs>
       <path d="M 4.15625 35.296875 
Q 4.15625 48 6.765625 55.734375 
Q 9.375 63.484375 14.515625 67.671875 
Q 19.671875 71.875 27.484375 71.875 
Q 33.25 71.875 37.59375 69.546875 
Q 41.9375 67.234375 44.765625 62.859375 
Q 47.609375 58.5 49.21875 52.21875 
Q 50.828125 45.953125 50.828125 35.296875 
Q 50.828125 22.703125 48.234375 14.96875 
Q 45.65625 7.234375 40.5 3 
Q 35.359375 -1.21875 27.484375 -1.21875 
Q 17.140625 -1.21875 11.234375 6.203125 
Q 4.15625 15.140625 4.15625 35.296875 
z
M 13.1875 35.296875 
Q 13.1875 17.671875 17.3125 11.828125 
Q 21.4375 6 27.484375 6 
Q 33.546875 6 37.671875 11.859375 
Q 41.796875 17.71875 41.796875 35.296875 
Q 41.796875 52.984375 37.671875 58.78125 
Q 33.546875 64.59375 27.390625 64.59375 
Q 21.34375 64.59375 17.71875 59.46875 
Q 13.1875 52.9375 13.1875 35.296875 
z
" id="ArialMT-30"/>
      </defs>
      <g style="fill:#262626;" transform="translate(162.05125 676.4525)scale(0.16 -0.16)">
       <use xlink:href="#ArialMT-30"/>
      </g>
     </g>
    </g>
    <g id="xtick_2">
     <g id="line2d_3">
      <path clip-path="url(#p2341e2e7ce)" d="M 309.875 661.5 
L 309.875 90.72 
" style="fill:none;stroke:#cccccc;stroke-linecap:round;stroke-width:0.8;"/>
     </g>
     <g id="line2d_4"/>
     <g id="text_2">
      <!-- 20 -->
      <defs>
       <path d="M 50.34375 8.453125 
L 50.34375 0 
L 3.03125 0 
Q 2.9375 3.171875 4.046875 6.109375 
Q 5.859375 10.9375 9.828125 15.625 
Q 13.8125 20.3125 21.34375 26.46875 
Q 33.015625 36.03125 37.109375 41.625 
Q 41.21875 47.21875 41.21875 52.203125 
Q 41.21875 57.421875 37.46875 61 
Q 33.734375 64.59375 27.734375 64.59375 
Q 21.390625 64.59375 17.578125 60.78125 
Q 13.765625 56.984375 13.71875 50.25 
L 4.6875 51.171875 
Q 5.609375 61.28125 11.65625 66.578125 
Q 17.71875 71.875 27.9375 71.875 
Q 38.234375 71.875 44.234375 66.15625 
Q 50.25 60.453125 50.25 52 
Q 50.25 47.703125 48.484375 43.546875 
Q 46.734375 39.40625 42.65625 34.8125 
Q 38.578125 30.21875 29.109375 22.21875 
Q 21.1875 15.578125 18.9375 13.203125 
Q 16.703125 10.84375 15.234375 8.453125 
z
" id="ArialMT-32"/>
      </defs>
      <g style="fill:#262626;" transform="translate(300.9775 676.4525)scale(0.16 -0.16)">
       <use xlink:href="#ArialMT-32"/>
       <use x="55.615234" xlink:href="#ArialMT-30"/>
      </g>
     </g>
    </g>
    <g id="xtick_3">
     <g id="line2d_5">
      <path clip-path="url(#p2341e2e7ce)" d="M 453.25 661.5 
L 453.25 90.72 
" style="fill:none;stroke:#cccccc;stroke-linecap:round;stroke-width:0.8;"/>
     </g>
     <g id="line2d_6"/>
     <g id="text_3">
      <!-- 40 -->
      <defs>
       <path d="M 32.328125 0 
L 32.328125 17.140625 
L 1.265625 17.140625 
L 1.265625 25.203125 
L 33.9375 71.578125 
L 41.109375 71.578125 
L 41.109375 25.203125 
L 50.78125 25.203125 
L 50.78125 17.140625 
L 41.109375 17.140625 
L 41.109375 0 
z
M 32.328125 25.203125 
L 32.328125 57.46875 
L 9.90625 25.203125 
z
" id="ArialMT-34"/>
      </defs>
      <g style="fill:#262626;" transform="translate(444.3525 676.4525)scale(0.16 -0.16)">
       <use xlink:href="#ArialMT-34"/>
       <use x="55.615234" xlink:href="#ArialMT-30"/>
      </g>
     </g>
    </g>
    <g id="xtick_4">
     <g id="line2d_7">
      <path clip-path="url(#p2341e2e7ce)" d="M 596.625 661.5 
L 596.625 90.72 
" style="fill:none;stroke:#cccccc;stroke-linecap:round;stroke-width:0.8;"/>
     </g>
     <g id="line2d_8"/>
     <g id="text_4">
      <!-- 60 -->
      <defs>
       <path d="M 49.75 54.046875 
L 41.015625 53.375 
Q 39.84375 58.546875 37.703125 60.890625 
Q 34.125 64.65625 28.90625 64.65625 
Q 24.703125 64.65625 21.53125 62.3125 
Q 17.390625 59.28125 14.984375 53.46875 
Q 12.59375 47.65625 12.5 36.921875 
Q 15.671875 41.75 20.265625 44.09375 
Q 24.859375 46.4375 29.890625 46.4375 
Q 38.671875 46.4375 44.84375 39.96875 
Q 51.03125 33.5 51.03125 23.25 
Q 51.03125 16.5 48.125 10.71875 
Q 45.21875 4.9375 40.140625 1.859375 
Q 35.0625 -1.21875 28.609375 -1.21875 
Q 17.625 -1.21875 10.6875 6.859375 
Q 3.765625 14.9375 3.765625 33.5 
Q 3.765625 54.25 11.421875 63.671875 
Q 18.109375 71.875 29.4375 71.875 
Q 37.890625 71.875 43.28125 67.140625 
Q 48.6875 62.40625 49.75 54.046875 
z
M 13.875 23.1875 
Q 13.875 18.65625 15.796875 14.5 
Q 17.71875 10.359375 21.1875 8.171875 
Q 24.65625 6 28.46875 6 
Q 34.03125 6 38.03125 10.484375 
Q 42.046875 14.984375 42.046875 22.703125 
Q 42.046875 30.125 38.078125 34.390625 
Q 34.125 38.671875 28.125 38.671875 
Q 22.171875 38.671875 18.015625 34.390625 
Q 13.875 30.125 13.875 23.1875 
z
" id="ArialMT-36"/>
      </defs>
      <g style="fill:#262626;" transform="translate(587.7275 676.4525)scale(0.16 -0.16)">
       <use xlink:href="#ArialMT-36"/>
       <use x="55.615234" xlink:href="#ArialMT-30"/>
      </g>
     </g>
    </g>
    <g id="xtick_5">
     <g id="line2d_9">
      <path clip-path="url(#p2341e2e7ce)" d="M 740 661.5 
L 740 90.72 
" style="fill:none;stroke:#cccccc;stroke-linecap:round;stroke-width:0.8;"/>
     </g>
     <g id="line2d_10"/>
     <g id="text_5">
      <!-- 80 -->
      <defs>
       <path d="M 17.671875 38.8125 
Q 12.203125 40.828125 9.5625 44.53125 
Q 6.9375 48.25 6.9375 53.421875 
Q 6.9375 61.234375 12.546875 66.546875 
Q 18.171875 71.875 27.484375 71.875 
Q 36.859375 71.875 42.578125 66.421875 
Q 48.296875 60.984375 48.296875 53.171875 
Q 48.296875 48.1875 45.671875 44.5 
Q 43.0625 40.828125 37.75 38.8125 
Q 44.34375 36.671875 47.78125 31.875 
Q 51.21875 27.09375 51.21875 20.453125 
Q 51.21875 11.28125 44.71875 5.03125 
Q 38.234375 -1.21875 27.640625 -1.21875 
Q 17.046875 -1.21875 10.546875 5.046875 
Q 4.046875 11.328125 4.046875 20.703125 
Q 4.046875 27.6875 7.59375 32.390625 
Q 11.140625 37.109375 17.671875 38.8125 
z
M 15.921875 53.71875 
Q 15.921875 48.640625 19.1875 45.40625 
Q 22.46875 42.1875 27.6875 42.1875 
Q 32.765625 42.1875 36.015625 45.375 
Q 39.265625 48.578125 39.265625 53.21875 
Q 39.265625 58.0625 35.90625 61.359375 
Q 32.5625 64.65625 27.59375 64.65625 
Q 22.5625 64.65625 19.234375 61.421875 
Q 15.921875 58.203125 15.921875 53.71875 
z
M 13.09375 20.65625 
Q 13.09375 16.890625 14.875 13.375 
Q 16.65625 9.859375 20.171875 7.921875 
Q 23.6875 6 27.734375 6 
Q 34.03125 6 38.125 10.046875 
Q 42.234375 14.109375 42.234375 20.359375 
Q 42.234375 26.703125 38.015625 30.859375 
Q 33.796875 35.015625 27.4375 35.015625 
Q 21.234375 35.015625 17.15625 30.90625 
Q 13.09375 26.8125 13.09375 20.65625 
z
" id="ArialMT-38"/>
      </defs>
      <g style="fill:#262626;" transform="translate(731.1025 676.4525)scale(0.16 -0.16)">
       <use xlink:href="#ArialMT-38"/>
       <use x="55.615234" xlink:href="#ArialMT-30"/>
      </g>
     </g>
    </g>
    <g id="xtick_6">
     <g id="line2d_11">
      <path clip-path="url(#p2341e2e7ce)" d="M 883.375 661.5 
L 883.375 90.72 
" style="fill:none;stroke:#cccccc;stroke-linecap:round;stroke-width:0.8;"/>
     </g>
     <g id="line2d_12"/>
     <g id="text_6">
      <!-- 100 -->
      <defs>
       <path d="M 37.25 0 
L 28.46875 0 
L 28.46875 56 
Q 25.296875 52.984375 20.140625 49.953125 
Q 14.984375 46.921875 10.890625 45.40625 
L 10.890625 53.90625 
Q 18.265625 57.375 23.78125 62.296875 
Q 29.296875 67.234375 31.59375 71.875 
L 37.25 71.875 
z
" id="ArialMT-31"/>
      </defs>
      <g style="fill:#262626;" transform="translate(870.02875 676.4525)scale(0.16 -0.16)">
       <use xlink:href="#ArialMT-31"/>
       <use x="55.615234" xlink:href="#ArialMT-30"/>
       <use x="111.230469" xlink:href="#ArialMT-30"/>
      </g>
     </g>
    </g>
    <g id="xtick_7">
     <g id="line2d_13">
      <path clip-path="url(#p2341e2e7ce)" d="M 1026.75 661.5 
L 1026.75 90.72 
" style="fill:none;stroke:#cccccc;stroke-linecap:round;stroke-width:0.8;"/>
     </g>
     <g id="line2d_14"/>
     <g id="text_7">
      <!-- 120 -->
      <g style="fill:#262626;" transform="translate(1013.40375 676.4525)scale(0.16 -0.16)">
       <use xlink:href="#ArialMT-31"/>
       <use x="55.615234" xlink:href="#ArialMT-32"/>
       <use x="111.230469" xlink:href="#ArialMT-30"/>
      </g>
     </g>
    </g>
    <g id="xtick_8">
     <g id="line2d_15">
      <path clip-path="url(#p2341e2e7ce)" d="M 1170.125 661.5 
L 1170.125 90.72 
" style="fill:none;stroke:#cccccc;stroke-linecap:round;stroke-width:0.8;"/>
     </g>
     <g id="line2d_16"/>
     <g id="text_8">
      <!-- 140 -->
      <g style="fill:#262626;" transform="translate(1156.77875 676.4525)scale(0.16 -0.16)">
       <use xlink:href="#ArialMT-31"/>
       <use x="55.615234" xlink:href="#ArialMT-34"/>
       <use x="111.230469" xlink:href="#ArialMT-30"/>
      </g>
     </g>
    </g>
    <g id="text_9">
     <!-- Champion -->
     <defs>
      <path d="M 58.796875 25.09375 
L 68.265625 22.703125 
Q 65.28125 11.03125 57.546875 4.90625 
Q 49.8125 -1.21875 38.625 -1.21875 
Q 27.046875 -1.21875 19.796875 3.484375 
Q 12.546875 8.203125 8.765625 17.140625 
Q 4.984375 26.078125 4.984375 36.328125 
Q 4.984375 47.515625 9.25 55.828125 
Q 13.53125 64.15625 21.40625 68.46875 
Q 29.296875 72.796875 38.765625 72.796875 
Q 49.515625 72.796875 56.828125 67.328125 
Q 64.15625 61.859375 67.046875 51.953125 
L 57.71875 49.75 
Q 55.21875 57.5625 50.484375 61.125 
Q 45.75 64.703125 38.578125 64.703125 
Q 30.328125 64.703125 24.78125 60.734375 
Q 19.234375 56.78125 16.984375 50.109375 
Q 14.75 43.453125 14.75 36.375 
Q 14.75 27.25 17.40625 20.4375 
Q 20.0625 13.625 25.671875 10.25 
Q 31.296875 6.890625 37.84375 6.890625 
Q 45.796875 6.890625 51.3125 11.46875 
Q 56.84375 16.0625 58.796875 25.09375 
z
" id="ArialMT-43"/>
      <path d="M 6.59375 0 
L 6.59375 71.578125 
L 15.375 71.578125 
L 15.375 45.90625 
Q 21.53125 53.03125 30.90625 53.03125 
Q 36.671875 53.03125 40.921875 50.75 
Q 45.171875 48.484375 47 44.484375 
Q 48.828125 40.484375 48.828125 32.859375 
L 48.828125 0 
L 40.046875 0 
L 40.046875 32.859375 
Q 40.046875 39.453125 37.1875 42.453125 
Q 34.328125 45.453125 29.109375 45.453125 
Q 25.203125 45.453125 21.75 43.421875 
Q 18.3125 41.40625 16.84375 37.9375 
Q 15.375 34.46875 15.375 28.375 
L 15.375 0 
z
" id="ArialMT-68"/>
      <path d="M 40.4375 6.390625 
Q 35.546875 2.25 31.03125 0.53125 
Q 26.515625 -1.171875 21.34375 -1.171875 
Q 12.796875 -1.171875 8.203125 3 
Q 3.609375 7.171875 3.609375 13.671875 
Q 3.609375 17.484375 5.34375 20.625 
Q 7.078125 23.78125 9.890625 25.6875 
Q 12.703125 27.59375 16.21875 28.5625 
Q 18.796875 29.25 24.03125 29.890625 
Q 34.671875 31.15625 39.703125 32.90625 
Q 39.75 34.71875 39.75 35.203125 
Q 39.75 40.578125 37.25 42.78125 
Q 33.890625 45.75 27.25 45.75 
Q 21.046875 45.75 18.09375 43.578125 
Q 15.140625 41.40625 13.71875 35.890625 
L 5.125 37.0625 
Q 6.296875 42.578125 8.984375 45.96875 
Q 11.671875 49.359375 16.75 51.1875 
Q 21.828125 53.03125 28.515625 53.03125 
Q 35.15625 53.03125 39.296875 51.46875 
Q 43.453125 49.90625 45.40625 47.53125 
Q 47.359375 45.171875 48.140625 41.546875 
Q 48.578125 39.3125 48.578125 33.453125 
L 48.578125 21.734375 
Q 48.578125 9.46875 49.140625 6.21875 
Q 49.703125 2.984375 51.375 0 
L 42.1875 0 
Q 40.828125 2.734375 40.4375 6.390625 
z
M 39.703125 26.03125 
Q 34.90625 24.078125 25.34375 22.703125 
Q 19.921875 21.921875 17.671875 20.9375 
Q 15.4375 19.96875 14.203125 18.09375 
Q 12.984375 16.21875 12.984375 13.921875 
Q 12.984375 10.40625 15.640625 8.0625 
Q 18.3125 5.71875 23.4375 5.71875 
Q 28.515625 5.71875 32.46875 7.9375 
Q 36.421875 10.15625 38.28125 14.015625 
Q 39.703125 17 39.703125 22.796875 
z
" id="ArialMT-61"/>
      <path d="M 6.59375 0 
L 6.59375 51.859375 
L 14.453125 51.859375 
L 14.453125 44.578125 
Q 16.890625 48.390625 20.9375 50.703125 
Q 25 53.03125 30.171875 53.03125 
Q 35.9375 53.03125 39.625 50.640625 
Q 43.3125 48.25 44.828125 43.953125 
Q 50.984375 53.03125 60.84375 53.03125 
Q 68.5625 53.03125 72.703125 48.75 
Q 76.859375 44.484375 76.859375 35.59375 
L 76.859375 0 
L 68.109375 0 
L 68.109375 32.671875 
Q 68.109375 37.9375 67.25 40.25 
Q 66.40625 42.578125 64.15625 43.984375 
Q 61.921875 45.40625 58.890625 45.40625 
Q 53.421875 45.40625 49.796875 41.765625 
Q 46.1875 38.140625 46.1875 30.125 
L 46.1875 0 
L 37.40625 0 
L 37.40625 33.6875 
Q 37.40625 39.546875 35.25 42.46875 
Q 33.109375 45.40625 28.21875 45.40625 
Q 24.515625 45.40625 21.359375 43.453125 
Q 18.21875 41.5 16.796875 37.734375 
Q 15.375 33.984375 15.375 26.90625 
L 15.375 0 
z
" id="ArialMT-6d"/>
      <path d="M 6.59375 -19.875 
L 6.59375 51.859375 
L 14.59375 51.859375 
L 14.59375 45.125 
Q 17.4375 49.078125 21 51.046875 
Q 24.5625 53.03125 29.640625 53.03125 
Q 36.28125 53.03125 41.359375 49.609375 
Q 46.4375 46.1875 49.015625 39.953125 
Q 51.609375 33.734375 51.609375 26.3125 
Q 51.609375 18.359375 48.75 11.984375 
Q 45.90625 5.609375 40.453125 2.21875 
Q 35.015625 -1.171875 29 -1.171875 
Q 24.609375 -1.171875 21.109375 0.6875 
Q 17.625 2.546875 15.375 5.375 
L 15.375 -19.875 
z
M 14.546875 25.640625 
Q 14.546875 15.625 18.59375 10.84375 
Q 22.65625 6.0625 28.421875 6.0625 
Q 34.28125 6.0625 38.453125 11.015625 
Q 42.625 15.96875 42.625 26.375 
Q 42.625 36.28125 38.546875 41.203125 
Q 34.46875 46.140625 28.8125 46.140625 
Q 23.1875 46.140625 18.859375 40.890625 
Q 14.546875 35.640625 14.546875 25.640625 
z
" id="ArialMT-70"/>
      <path d="M 6.640625 61.46875 
L 6.640625 71.578125 
L 15.4375 71.578125 
L 15.4375 61.46875 
z
M 6.640625 0 
L 6.640625 51.859375 
L 15.4375 51.859375 
L 15.4375 0 
z
" id="ArialMT-69"/>
      <path d="M 3.328125 25.921875 
Q 3.328125 40.328125 11.328125 47.265625 
Q 18.015625 53.03125 27.640625 53.03125 
Q 38.328125 53.03125 45.109375 46.015625 
Q 51.90625 39.015625 51.90625 26.65625 
Q 51.90625 16.65625 48.90625 10.90625 
Q 45.90625 5.171875 40.15625 2 
Q 34.421875 -1.171875 27.640625 -1.171875 
Q 16.75 -1.171875 10.03125 5.8125 
Q 3.328125 12.796875 3.328125 25.921875 
z
M 12.359375 25.921875 
Q 12.359375 15.96875 16.703125 11.015625 
Q 21.046875 6.0625 27.640625 6.0625 
Q 34.1875 6.0625 38.53125 11.03125 
Q 42.875 16.015625 42.875 26.21875 
Q 42.875 35.84375 38.5 40.796875 
Q 34.125 45.75 27.640625 45.75 
Q 21.046875 45.75 16.703125 40.8125 
Q 12.359375 35.890625 12.359375 25.921875 
z
" id="ArialMT-6f"/>
      <path d="M 6.59375 0 
L 6.59375 51.859375 
L 14.5 51.859375 
L 14.5 44.484375 
Q 20.21875 53.03125 31 53.03125 
Q 35.6875 53.03125 39.625 51.34375 
Q 43.5625 49.65625 45.515625 46.921875 
Q 47.46875 44.1875 48.25 40.4375 
Q 48.734375 37.984375 48.734375 31.890625 
L 48.734375 0 
L 39.9375 0 
L 39.9375 31.546875 
Q 39.9375 36.921875 38.90625 39.578125 
Q 37.890625 42.234375 35.28125 43.8125 
Q 32.671875 45.40625 29.15625 45.40625 
Q 23.53125 45.40625 19.453125 41.84375 
Q 15.375 38.28125 15.375 28.328125 
L 15.375 0 
z
" id="ArialMT-6e"/>
     </defs>
     <g style="fill:#262626;" transform="translate(646.1875 695.28)scale(0.16 -0.16)">
      <use xlink:href="#ArialMT-43"/>
      <use x="72.216797" xlink:href="#ArialMT-68"/>
      <use x="127.832031" xlink:href="#ArialMT-61"/>
      <use x="183.447266" xlink:href="#ArialMT-6d"/>
      <use x="266.748047" xlink:href="#ArialMT-70"/>
      <use x="322.363281" xlink:href="#ArialMT-69"/>
      <use x="344.580078" xlink:href="#ArialMT-6f"/>
      <use x="400.195312" xlink:href="#ArialMT-6e"/>
     </g>
    </g>
   </g>
   <g id="matplotlib.axis_2">
    <g id="ytick_1">
     <g id="line2d_17">
      <path clip-path="url(#p2341e2e7ce)" d="M 166.5 604.210714 
L 1198.8 604.210714 
" style="fill:none;stroke:#cccccc;stroke-linecap:round;stroke-width:0.8;"/>
     </g>
     <g id="line2d_18"/>
     <g id="text_10">
      <!-- −5 -->
      <defs>
       <path d="M 52.828125 31.203125 
L 5.5625 31.203125 
L 5.5625 39.40625 
L 52.828125 39.40625 
z
" id="ArialMT-2212"/>
       <path d="M 4.15625 18.75 
L 13.375 19.53125 
Q 14.40625 12.796875 18.140625 9.390625 
Q 21.875 6 27.15625 6 
Q 33.5 6 37.890625 10.78125 
Q 42.28125 15.578125 42.28125 23.484375 
Q 42.28125 31 38.0625 35.34375 
Q 33.84375 39.703125 27 39.703125 
Q 22.75 39.703125 19.328125 37.765625 
Q 15.921875 35.84375 13.96875 32.765625 
L 5.71875 33.84375 
L 12.640625 70.609375 
L 48.25 70.609375 
L 48.25 62.203125 
L 19.671875 62.203125 
L 15.828125 42.96875 
Q 22.265625 47.46875 29.34375 47.46875 
Q 38.71875 47.46875 45.15625 40.96875 
Q 51.609375 34.46875 51.609375 24.265625 
Q 51.609375 14.546875 45.953125 7.46875 
Q 39.0625 -1.21875 27.15625 -1.21875 
Q 17.390625 -1.21875 11.203125 4.25 
Q 5.03125 9.71875 4.15625 18.75 
z
" id="ArialMT-35"/>
      </defs>
      <g style="fill:#262626;" transform="translate(144.7575 609.936964)scale(0.16 -0.16)">
       <use xlink:href="#ArialMT-2212"/>
       <use x="58.398438" xlink:href="#ArialMT-35"/>
      </g>
     </g>
    </g>
    <g id="ytick_2">
     <g id="line2d_19">
      <path clip-path="url(#p2341e2e7ce)" d="M 166.5 517.873495 
L 1198.8 517.873495 
" style="fill:none;stroke:#cccccc;stroke-linecap:round;stroke-width:0.8;"/>
     </g>
     <g id="line2d_20"/>
     <g id="text_11">
      <!-- −4 -->
      <g style="fill:#262626;" transform="translate(144.7575 523.599745)scale(0.16 -0.16)">
       <use xlink:href="#ArialMT-2212"/>
       <use x="58.398438" xlink:href="#ArialMT-34"/>
      </g>
     </g>
    </g>
    <g id="ytick_3">
     <g id="line2d_21">
      <path clip-path="url(#p2341e2e7ce)" d="M 166.5 431.536277 
L 1198.8 431.536277 
" style="fill:none;stroke:#cccccc;stroke-linecap:round;stroke-width:0.8;"/>
     </g>
     <g id="line2d_22"/>
     <g id="text_12">
      <!-- −3 -->
      <defs>
       <path d="M 4.203125 18.890625 
L 12.984375 20.0625 
Q 14.5 12.59375 18.140625 9.296875 
Q 21.78125 6 27 6 
Q 33.203125 6 37.46875 10.296875 
Q 41.75 14.59375 41.75 20.953125 
Q 41.75 27 37.796875 30.921875 
Q 33.84375 34.859375 27.734375 34.859375 
Q 25.25 34.859375 21.53125 33.890625 
L 22.515625 41.609375 
Q 23.390625 41.5 23.921875 41.5 
Q 29.546875 41.5 34.03125 44.421875 
Q 38.53125 47.359375 38.53125 53.46875 
Q 38.53125 58.296875 35.25 61.46875 
Q 31.984375 64.65625 26.8125 64.65625 
Q 21.6875 64.65625 18.265625 61.421875 
Q 14.84375 58.203125 13.875 51.765625 
L 5.078125 53.328125 
Q 6.6875 62.15625 12.390625 67.015625 
Q 18.109375 71.875 26.609375 71.875 
Q 32.46875 71.875 37.390625 69.359375 
Q 42.328125 66.84375 44.9375 62.5 
Q 47.5625 58.15625 47.5625 53.265625 
Q 47.5625 48.640625 45.0625 44.828125 
Q 42.578125 41.015625 37.703125 38.765625 
Q 44.046875 37.3125 47.5625 32.6875 
Q 51.078125 28.078125 51.078125 21.140625 
Q 51.078125 11.765625 44.234375 5.25 
Q 37.40625 -1.265625 26.953125 -1.265625 
Q 17.53125 -1.265625 11.296875 4.34375 
Q 5.078125 9.96875 4.203125 18.890625 
z
" id="ArialMT-33"/>
      </defs>
      <g style="fill:#262626;" transform="translate(144.7575 437.262527)scale(0.16 -0.16)">
       <use xlink:href="#ArialMT-2212"/>
       <use x="58.398438" xlink:href="#ArialMT-33"/>
      </g>
     </g>
    </g>
    <g id="ytick_4">
     <g id="line2d_23">
      <path clip-path="url(#p2341e2e7ce)" d="M 166.5 345.199058 
L 1198.8 345.199058 
" style="fill:none;stroke:#cccccc;stroke-linecap:round;stroke-width:0.8;"/>
     </g>
     <g id="line2d_24"/>
     <g id="text_13">
      <!-- −2 -->
      <g style="fill:#262626;" transform="translate(144.7575 350.925308)scale(0.16 -0.16)">
       <use xlink:href="#ArialMT-2212"/>
       <use x="58.398438" xlink:href="#ArialMT-32"/>
      </g>
     </g>
    </g>
    <g id="ytick_5">
     <g id="line2d_25">
      <path clip-path="url(#p2341e2e7ce)" d="M 166.5 258.861839 
L 1198.8 258.861839 
" style="fill:none;stroke:#cccccc;stroke-linecap:round;stroke-width:0.8;"/>
     </g>
     <g id="line2d_26"/>
     <g id="text_14">
      <!-- −1 -->
      <g style="fill:#262626;" transform="translate(144.7575 264.588089)scale(0.16 -0.16)">
       <use xlink:href="#ArialMT-2212"/>
       <use x="58.398438" xlink:href="#ArialMT-31"/>
      </g>
     </g>
    </g>
    <g id="ytick_6">
     <g id="line2d_27">
      <path clip-path="url(#p2341e2e7ce)" d="M 166.5 172.52462 
L 1198.8 172.52462 
" style="fill:none;stroke:#cccccc;stroke-linecap:round;stroke-width:0.8;"/>
     </g>
     <g id="line2d_28"/>
     <g id="text_15">
      <!-- 0 -->
      <g style="fill:#262626;" transform="translate(154.1025 178.25087)scale(0.16 -0.16)">
       <use xlink:href="#ArialMT-30"/>
      </g>
     </g>
    </g>
    <g id="text_16">
     <!-- Average Score vs Baseline Policy -->
     <defs>
      <path d="M -0.140625 0 
L 27.34375 71.578125 
L 37.546875 71.578125 
L 66.84375 0 
L 56.0625 0 
L 47.703125 21.6875 
L 17.78125 21.6875 
L 9.90625 0 
z
M 20.515625 29.390625 
L 44.78125 29.390625 
L 37.3125 49.21875 
Q 33.890625 58.25 32.234375 64.0625 
Q 30.859375 57.171875 28.375 50.390625 
z
" id="ArialMT-41"/>
      <path d="M 21 0 
L 1.265625 51.859375 
L 10.546875 51.859375 
L 21.6875 20.796875 
Q 23.484375 15.765625 25 10.359375 
Q 26.171875 14.453125 28.265625 20.21875 
L 39.796875 51.859375 
L 48.828125 51.859375 
L 29.203125 0 
z
" id="ArialMT-76"/>
      <path d="M 42.09375 16.703125 
L 51.171875 15.578125 
Q 49.03125 7.625 43.21875 3.21875 
Q 37.40625 -1.171875 28.375 -1.171875 
Q 17 -1.171875 10.328125 5.828125 
Q 3.65625 12.84375 3.65625 25.484375 
Q 3.65625 38.578125 10.390625 45.796875 
Q 17.140625 53.03125 27.875 53.03125 
Q 38.28125 53.03125 44.875 45.953125 
Q 51.46875 38.875 51.46875 26.03125 
Q 51.46875 25.25 51.421875 23.6875 
L 12.75 23.6875 
Q 13.234375 15.140625 17.578125 10.59375 
Q 21.921875 6.0625 28.421875 6.0625 
Q 33.25 6.0625 36.671875 8.59375 
Q 40.09375 11.140625 42.09375 16.703125 
z
M 13.234375 30.90625 
L 42.1875 30.90625 
Q 41.609375 37.453125 38.875 40.71875 
Q 34.671875 45.796875 27.984375 45.796875 
Q 21.921875 45.796875 17.796875 41.75 
Q 13.671875 37.703125 13.234375 30.90625 
z
" id="ArialMT-65"/>
      <path d="M 6.5 0 
L 6.5 51.859375 
L 14.40625 51.859375 
L 14.40625 44 
Q 17.4375 49.515625 20 51.265625 
Q 22.5625 53.03125 25.640625 53.03125 
Q 30.078125 53.03125 34.671875 50.203125 
L 31.640625 42.046875 
Q 28.421875 43.953125 25.203125 43.953125 
Q 22.3125 43.953125 20.015625 42.21875 
Q 17.71875 40.484375 16.75 37.40625 
Q 15.28125 32.71875 15.28125 27.15625 
L 15.28125 0 
z
" id="ArialMT-72"/>
      <path d="M 4.984375 -4.296875 
L 13.53125 -5.5625 
Q 14.0625 -9.515625 16.5 -11.328125 
Q 19.78125 -13.765625 25.4375 -13.765625 
Q 31.546875 -13.765625 34.859375 -11.328125 
Q 38.1875 -8.890625 39.359375 -4.5 
Q 40.046875 -1.8125 39.984375 6.78125 
Q 34.234375 0 25.640625 0 
Q 14.9375 0 9.078125 7.71875 
Q 3.21875 15.4375 3.21875 26.21875 
Q 3.21875 33.640625 5.90625 39.90625 
Q 8.59375 46.1875 13.6875 49.609375 
Q 18.796875 53.03125 25.6875 53.03125 
Q 34.859375 53.03125 40.828125 45.609375 
L 40.828125 51.859375 
L 48.921875 51.859375 
L 48.921875 7.03125 
Q 48.921875 -5.078125 46.453125 -10.125 
Q 44 -15.1875 38.640625 -18.109375 
Q 33.296875 -21.046875 25.484375 -21.046875 
Q 16.21875 -21.046875 10.5 -16.875 
Q 4.78125 -12.703125 4.984375 -4.296875 
z
M 12.25 26.859375 
Q 12.25 16.65625 16.296875 11.96875 
Q 20.359375 7.28125 26.46875 7.28125 
Q 32.515625 7.28125 36.609375 11.9375 
Q 40.71875 16.609375 40.71875 26.5625 
Q 40.71875 36.078125 36.5 40.90625 
Q 32.28125 45.75 26.3125 45.75 
Q 20.453125 45.75 16.34375 40.984375 
Q 12.25 36.234375 12.25 26.859375 
z
" id="ArialMT-67"/>
      <path id="ArialMT-20"/>
      <path d="M 4.5 23 
L 13.421875 23.78125 
Q 14.0625 18.40625 16.375 14.96875 
Q 18.703125 11.53125 23.578125 9.40625 
Q 28.46875 7.28125 34.578125 7.28125 
Q 39.984375 7.28125 44.140625 8.890625 
Q 48.296875 10.5 50.3125 13.296875 
Q 52.34375 16.109375 52.34375 19.4375 
Q 52.34375 22.796875 50.390625 25.3125 
Q 48.4375 27.828125 43.953125 29.546875 
Q 41.0625 30.671875 31.203125 33.03125 
Q 21.34375 35.40625 17.390625 37.5 
Q 12.25 40.1875 9.734375 44.15625 
Q 7.234375 48.140625 7.234375 53.078125 
Q 7.234375 58.5 10.296875 63.203125 
Q 13.375 67.921875 19.28125 70.359375 
Q 25.203125 72.796875 32.421875 72.796875 
Q 40.375 72.796875 46.453125 70.234375 
Q 52.546875 67.671875 55.8125 62.6875 
Q 59.078125 57.71875 59.328125 51.421875 
L 50.25 50.734375 
Q 49.515625 57.515625 45.28125 60.984375 
Q 41.0625 64.453125 32.8125 64.453125 
Q 24.21875 64.453125 20.28125 61.296875 
Q 16.359375 58.15625 16.359375 53.71875 
Q 16.359375 49.859375 19.140625 47.359375 
Q 21.875 44.875 33.421875 42.265625 
Q 44.96875 39.65625 49.265625 37.703125 
Q 55.515625 34.8125 58.484375 30.390625 
Q 61.46875 25.984375 61.46875 20.21875 
Q 61.46875 14.5 58.203125 9.4375 
Q 54.9375 4.390625 48.796875 1.578125 
Q 42.671875 -1.21875 35.015625 -1.21875 
Q 25.296875 -1.21875 18.71875 1.609375 
Q 12.15625 4.4375 8.421875 10.125 
Q 4.6875 15.828125 4.5 23 
z
" id="ArialMT-53"/>
      <path d="M 40.4375 19 
L 49.078125 17.875 
Q 47.65625 8.9375 41.8125 3.875 
Q 35.984375 -1.171875 27.484375 -1.171875 
Q 16.84375 -1.171875 10.375 5.78125 
Q 3.90625 12.75 3.90625 25.734375 
Q 3.90625 34.125 6.6875 40.421875 
Q 9.46875 46.734375 15.15625 49.875 
Q 20.84375 53.03125 27.546875 53.03125 
Q 35.984375 53.03125 41.359375 48.75 
Q 46.734375 44.484375 48.25 36.625 
L 39.703125 35.296875 
Q 38.484375 40.53125 35.375 43.15625 
Q 32.28125 45.796875 27.875 45.796875 
Q 21.234375 45.796875 17.078125 41.03125 
Q 12.9375 36.28125 12.9375 25.984375 
Q 12.9375 15.53125 16.9375 10.796875 
Q 20.953125 6.0625 27.390625 6.0625 
Q 32.5625 6.0625 36.03125 9.234375 
Q 39.5 12.40625 40.4375 19 
z
" id="ArialMT-63"/>
      <path d="M 3.078125 15.484375 
L 11.765625 16.84375 
Q 12.5 11.625 15.84375 8.84375 
Q 19.1875 6.0625 25.203125 6.0625 
Q 31.25 6.0625 34.171875 8.515625 
Q 37.109375 10.984375 37.109375 14.3125 
Q 37.109375 17.28125 34.515625 19 
Q 32.71875 20.171875 25.53125 21.96875 
Q 15.875 24.421875 12.140625 26.203125 
Q 8.40625 27.984375 6.46875 31.125 
Q 4.546875 34.28125 4.546875 38.09375 
Q 4.546875 41.546875 6.125 44.5 
Q 7.71875 47.46875 10.453125 49.421875 
Q 12.5 50.921875 16.03125 51.96875 
Q 19.578125 53.03125 23.640625 53.03125 
Q 29.734375 53.03125 34.34375 51.265625 
Q 38.96875 49.515625 41.15625 46.5 
Q 43.359375 43.5 44.1875 38.484375 
L 35.59375 37.3125 
Q 35.015625 41.3125 32.203125 43.546875 
Q 29.390625 45.796875 24.265625 45.796875 
Q 18.21875 45.796875 15.625 43.796875 
Q 13.03125 41.796875 13.03125 39.109375 
Q 13.03125 37.40625 14.109375 36.03125 
Q 15.1875 34.625 17.484375 33.6875 
Q 18.796875 33.203125 25.25 31.453125 
Q 34.578125 28.953125 38.25 27.359375 
Q 41.9375 25.78125 44.03125 22.75 
Q 46.140625 19.734375 46.140625 15.234375 
Q 46.140625 10.84375 43.578125 6.953125 
Q 41.015625 3.078125 36.171875 0.953125 
Q 31.34375 -1.171875 25.25 -1.171875 
Q 15.140625 -1.171875 9.84375 3.03125 
Q 4.546875 7.234375 3.078125 15.484375 
z
" id="ArialMT-73"/>
      <path d="M 7.328125 0 
L 7.328125 71.578125 
L 34.1875 71.578125 
Q 42.390625 71.578125 47.34375 69.40625 
Q 52.296875 67.234375 55.09375 62.71875 
Q 57.90625 58.203125 57.90625 53.265625 
Q 57.90625 48.6875 55.421875 44.625 
Q 52.9375 40.578125 47.90625 38.09375 
Q 54.390625 36.1875 57.875 31.59375 
Q 61.375 27 61.375 20.75 
Q 61.375 15.71875 59.25 11.390625 
Q 57.125 7.078125 54 4.734375 
Q 50.875 2.390625 46.15625 1.1875 
Q 41.453125 0 34.625 0 
z
M 16.796875 41.5 
L 32.28125 41.5 
Q 38.578125 41.5 41.3125 42.328125 
Q 44.921875 43.40625 46.75 45.890625 
Q 48.578125 48.390625 48.578125 52.15625 
Q 48.578125 55.71875 46.875 58.421875 
Q 45.171875 61.140625 41.984375 62.140625 
Q 38.8125 63.140625 31.109375 63.140625 
L 16.796875 63.140625 
z
M 16.796875 8.453125 
L 34.625 8.453125 
Q 39.203125 8.453125 41.0625 8.796875 
Q 44.34375 9.375 46.53125 10.734375 
Q 48.734375 12.109375 50.140625 14.71875 
Q 51.5625 17.328125 51.5625 20.75 
Q 51.5625 24.75 49.515625 27.703125 
Q 47.46875 30.671875 43.828125 31.859375 
Q 40.1875 33.0625 33.34375 33.0625 
L 16.796875 33.0625 
z
" id="ArialMT-42"/>
      <path d="M 6.390625 0 
L 6.390625 71.578125 
L 15.1875 71.578125 
L 15.1875 0 
z
" id="ArialMT-6c"/>
      <path d="M 7.71875 0 
L 7.71875 71.578125 
L 34.71875 71.578125 
Q 41.84375 71.578125 45.609375 70.90625 
Q 50.875 70.015625 54.4375 67.546875 
Q 58.015625 65.09375 60.1875 60.640625 
Q 62.359375 56.203125 62.359375 50.875 
Q 62.359375 41.75 56.546875 35.421875 
Q 50.734375 29.109375 35.546875 29.109375 
L 17.1875 29.109375 
L 17.1875 0 
z
M 17.1875 37.546875 
L 35.6875 37.546875 
Q 44.875 37.546875 48.734375 40.96875 
Q 52.59375 44.390625 52.59375 50.59375 
Q 52.59375 55.078125 50.3125 58.265625 
Q 48.046875 61.46875 44.34375 62.5 
Q 41.9375 63.140625 35.5 63.140625 
L 17.1875 63.140625 
z
" id="ArialMT-50"/>
      <path d="M 6.203125 -19.96875 
L 5.21875 -11.71875 
Q 8.109375 -12.5 10.25 -12.5 
Q 13.1875 -12.5 14.9375 -11.515625 
Q 16.703125 -10.546875 17.828125 -8.796875 
Q 18.65625 -7.46875 20.515625 -2.25 
Q 20.75 -1.515625 21.296875 -0.09375 
L 1.609375 51.859375 
L 11.078125 51.859375 
L 21.875 21.828125 
Q 23.96875 16.109375 25.640625 9.8125 
Q 27.15625 15.875 29.25 21.625 
L 40.328125 51.859375 
L 49.125 51.859375 
L 29.390625 -0.875 
Q 26.21875 -9.421875 24.46875 -12.640625 
Q 22.125 -17 19.09375 -19.015625 
Q 16.0625 -21.046875 11.859375 -21.046875 
Q 9.328125 -21.046875 6.203125 -19.96875 
z
" id="ArialMT-79"/>
     </defs>
     <g style="fill:#262626;" transform="translate(137.39 495.7175)rotate(-90)scale(0.16 -0.16)">
      <use xlink:href="#ArialMT-41"/>
      <use x="66.683594" xlink:href="#ArialMT-76"/>
      <use x="116.683594" xlink:href="#ArialMT-65"/>
      <use x="172.298828" xlink:href="#ArialMT-72"/>
      <use x="205.599609" xlink:href="#ArialMT-61"/>
      <use x="261.214844" xlink:href="#ArialMT-67"/>
      <use x="316.830078" xlink:href="#ArialMT-65"/>
      <use x="372.445312" xlink:href="#ArialMT-20"/>
      <use x="400.228516" xlink:href="#ArialMT-53"/>
      <use x="466.927734" xlink:href="#ArialMT-63"/>
      <use x="516.927734" xlink:href="#ArialMT-6f"/>
      <use x="572.542969" xlink:href="#ArialMT-72"/>
      <use x="605.84375" xlink:href="#ArialMT-65"/>
      <use x="661.458984" xlink:href="#ArialMT-20"/>
      <use x="689.242188" xlink:href="#ArialMT-76"/>
      <use x="739.242188" xlink:href="#ArialMT-73"/>
      <use x="789.242188" xlink:href="#ArialMT-20"/>
      <use x="817.025391" xlink:href="#ArialMT-42"/>
      <use x="883.724609" xlink:href="#ArialMT-61"/>
      <use x="939.339844" xlink:href="#ArialMT-73"/>
      <use x="989.339844" xlink:href="#ArialMT-65"/>
      <use x="1044.955078" xlink:href="#ArialMT-6c"/>
      <use x="1067.171875" xlink:href="#ArialMT-69"/>
      <use x="1089.388672" xlink:href="#ArialMT-6e"/>
      <use x="1145.003906" xlink:href="#ArialMT-65"/>
      <use x="1200.619141" xlink:href="#ArialMT-20"/>
      <use x="1228.402344" xlink:href="#ArialMT-50"/>
      <use x="1295.101562" xlink:href="#ArialMT-6f"/>
      <use x="1350.716797" xlink:href="#ArialMT-6c"/>
      <use x="1372.933594" xlink:href="#ArialMT-69"/>
      <use x="1395.150391" xlink:href="#ArialMT-63"/>
      <use x="1445.150391" xlink:href="#ArialMT-79"/>
     </g>
    </g>
   </g>
   <g id="LineCollection_1">
    <path clip-path="url(#p2341e2e7ce)" d="M 173.66875 624.49996 
L 173.66875 561.81914 
" style="fill:none;stroke:#cccccc;stroke-opacity:0.4;stroke-width:3;"/>
    <path clip-path="url(#p2341e2e7ce)" d="M 180.8375 624.49996 
L 180.8375 561.81914 
" style="fill:none;stroke:#cccccc;stroke-opacity:0.4;stroke-width:3;"/>
    <path clip-path="url(#p2341e2e7ce)" d="M 188.00625 624.500066 
L 188.00625 561.93415 
" style="fill:none;stroke:#cccccc;stroke-opacity:0.4;stroke-width:3;"/>
    <path clip-path="url(#p2341e2e7ce)" d="M 195.175 624.500289 
L 195.175 562.077823 
" style="fill:none;stroke:#cccccc;stroke-opacity:0.4;stroke-width:3;"/>
    <path clip-path="url(#p2341e2e7ce)" d="M 202.34375 624.500456 
L 202.34375 561.956783 
" style="fill:none;stroke:#cccccc;stroke-opacity:0.4;stroke-width:3;"/>
    <path clip-path="url(#p2341e2e7ce)" d="M 209.5125 624.500608 
L 209.5125 561.887562 
" style="fill:none;stroke:#cccccc;stroke-opacity:0.4;stroke-width:3;"/>
    <path clip-path="url(#p2341e2e7ce)" d="M 216.68125 624.552789 
L 216.68125 561.800846 
" style="fill:none;stroke:#cccccc;stroke-opacity:0.4;stroke-width:3;"/>
    <path clip-path="url(#p2341e2e7ce)" d="M 223.85 624.553295 
L 223.85 561.489526 
" style="fill:none;stroke:#cccccc;stroke-opacity:0.4;stroke-width:3;"/>
    <path clip-path="url(#p2341e2e7ce)" d="M 231.01875 624.451172 
L 231.01875 561.522579 
" style="fill:none;stroke:#cccccc;stroke-opacity:0.4;stroke-width:3;"/>
    <path clip-path="url(#p2341e2e7ce)" d="M 238.1875 624.399893 
L 238.1875 561.677463 
" style="fill:none;stroke:#cccccc;stroke-opacity:0.4;stroke-width:3;"/>
    <path clip-path="url(#p2341e2e7ce)" d="M 245.35625 624.453976 
L 245.35625 561.41617 
" style="fill:none;stroke:#cccccc;stroke-opacity:0.4;stroke-width:3;"/>
    <path clip-path="url(#p2341e2e7ce)" d="M 252.525 624.48516 
L 252.525 560.556149 
" style="fill:none;stroke:#cccccc;stroke-opacity:0.4;stroke-width:3;"/>
    <path clip-path="url(#p2341e2e7ce)" d="M 259.69375 624.626293 
L 259.69375 560.242342 
" style="fill:none;stroke:#cccccc;stroke-opacity:0.4;stroke-width:3;"/>
    <path clip-path="url(#p2341e2e7ce)" d="M 266.8625 624.986887 
L 266.8625 559.156515 
" style="fill:none;stroke:#cccccc;stroke-opacity:0.4;stroke-width:3;"/>
    <path clip-path="url(#p2341e2e7ce)" d="M 274.03125 625.322109 
L 274.03125 558.061526 
" style="fill:none;stroke:#cccccc;stroke-opacity:0.4;stroke-width:3;"/>
    <path clip-path="url(#p2341e2e7ce)" d="M 281.2 625.267317 
L 281.2 557.840039 
" style="fill:none;stroke:#cccccc;stroke-opacity:0.4;stroke-width:3;"/>
    <path clip-path="url(#p2341e2e7ce)" d="M 288.36875 625.201247 
L 288.36875 558.285992 
" style="fill:none;stroke:#cccccc;stroke-opacity:0.4;stroke-width:3;"/>
    <path clip-path="url(#p2341e2e7ce)" d="M 295.5375 625.016321 
L 295.5375 558.505454 
" style="fill:none;stroke:#cccccc;stroke-opacity:0.4;stroke-width:3;"/>
    <path clip-path="url(#p2341e2e7ce)" d="M 302.70625 624.702494 
L 302.70625 558.957419 
" style="fill:none;stroke:#cccccc;stroke-opacity:0.4;stroke-width:3;"/>
    <path clip-path="url(#p2341e2e7ce)" d="M 309.875 624.434108 
L 309.875 559.191271 
" style="fill:none;stroke:#cccccc;stroke-opacity:0.4;stroke-width:3;"/>
    <path clip-path="url(#p2341e2e7ce)" d="M 317.04375 624.558734 
L 317.04375 558.859435 
" style="fill:none;stroke:#cccccc;stroke-opacity:0.4;stroke-width:3;"/>
    <path clip-path="url(#p2341e2e7ce)" d="M 324.2125 624.576716 
L 324.2125 558.46157 
" style="fill:none;stroke:#cccccc;stroke-opacity:0.4;stroke-width:3;"/>
    <path clip-path="url(#p2341e2e7ce)" d="M 331.38125 624.710913 
L 331.38125 558.120163 
" style="fill:none;stroke:#cccccc;stroke-opacity:0.4;stroke-width:3;"/>
    <path clip-path="url(#p2341e2e7ce)" d="M 338.55 624.863977 
L 338.55 557.587215 
" style="fill:none;stroke:#cccccc;stroke-opacity:0.4;stroke-width:3;"/>
    <path clip-path="url(#p2341e2e7ce)" d="M 345.71875 624.84653 
L 345.71875 557.431988 
" style="fill:none;stroke:#cccccc;stroke-opacity:0.4;stroke-width:3;"/>
    <path clip-path="url(#p2341e2e7ce)" d="M 352.8875 624.816413 
L 352.8875 556.909547 
" style="fill:none;stroke:#cccccc;stroke-opacity:0.4;stroke-width:3;"/>
    <path clip-path="url(#p2341e2e7ce)" d="M 360.05625 624.815917 
L 360.05625 556.737369 
" style="fill:none;stroke:#cccccc;stroke-opacity:0.4;stroke-width:3;"/>
    <path clip-path="url(#p2341e2e7ce)" d="M 367.225 624.93446 
L 367.225 556.480686 
" style="fill:none;stroke:#cccccc;stroke-opacity:0.4;stroke-width:3;"/>
    <path clip-path="url(#p2341e2e7ce)" d="M 374.39375 625.206128 
L 374.39375 555.72553 
" style="fill:none;stroke:#cccccc;stroke-opacity:0.4;stroke-width:3;"/>
    <path clip-path="url(#p2341e2e7ce)" d="M 381.5625 625.383387 
L 381.5625 554.650364 
" style="fill:none;stroke:#cccccc;stroke-opacity:0.4;stroke-width:3;"/>
    <path clip-path="url(#p2341e2e7ce)" d="M 388.73125 625.782684 
L 388.73125 553.180485 
" style="fill:none;stroke:#cccccc;stroke-opacity:0.4;stroke-width:3;"/>
    <path clip-path="url(#p2341e2e7ce)" d="M 395.9 626.25944 
L 395.9 551.046054 
" style="fill:none;stroke:#cccccc;stroke-opacity:0.4;stroke-width:3;"/>
    <path clip-path="url(#p2341e2e7ce)" d="M 403.06875 626.739972 
L 403.06875 548.700639 
" style="fill:none;stroke:#cccccc;stroke-opacity:0.4;stroke-width:3;"/>
    <path clip-path="url(#p2341e2e7ce)" d="M 410.2375 626.721644 
L 410.2375 547.579315 
" style="fill:none;stroke:#cccccc;stroke-opacity:0.4;stroke-width:3;"/>
    <path clip-path="url(#p2341e2e7ce)" d="M 417.40625 627.331639 
L 417.40625 545.311645 
" style="fill:none;stroke:#cccccc;stroke-opacity:0.4;stroke-width:3;"/>
    <path clip-path="url(#p2341e2e7ce)" d="M 424.575 627.325806 
L 424.575 544.350501 
" style="fill:none;stroke:#cccccc;stroke-opacity:0.4;stroke-width:3;"/>
    <path clip-path="url(#p2341e2e7ce)" d="M 431.74375 627.26379 
L 431.74375 542.858448 
" style="fill:none;stroke:#cccccc;stroke-opacity:0.4;stroke-width:3;"/>
    <path clip-path="url(#p2341e2e7ce)" d="M 438.9125 626.968236 
L 438.9125 542.048886 
" style="fill:none;stroke:#cccccc;stroke-opacity:0.4;stroke-width:3;"/>
    <path clip-path="url(#p2341e2e7ce)" d="M 446.08125 627.208949 
L 446.08125 540.012359 
" style="fill:none;stroke:#cccccc;stroke-opacity:0.4;stroke-width:3;"/>
    <path clip-path="url(#p2341e2e7ce)" d="M 453.25 627.058006 
L 453.25 538.125742 
" style="fill:none;stroke:#cccccc;stroke-opacity:0.4;stroke-width:3;"/>
    <path clip-path="url(#p2341e2e7ce)" d="M 460.41875 630.619401 
L 460.41875 522.028183 
" style="fill:none;stroke:#cccccc;stroke-opacity:0.4;stroke-width:3;"/>
    <path clip-path="url(#p2341e2e7ce)" d="M 467.5875 633.461228 
L 467.5875 499.432402 
" style="fill:none;stroke:#cccccc;stroke-opacity:0.4;stroke-width:3;"/>
    <path clip-path="url(#p2341e2e7ce)" d="M 474.75625 633.712613 
L 474.75625 472.589153 
" style="fill:none;stroke:#cccccc;stroke-opacity:0.4;stroke-width:3;"/>
    <path clip-path="url(#p2341e2e7ce)" d="M 481.925 631.597821 
L 481.925 442.793709 
" style="fill:none;stroke:#cccccc;stroke-opacity:0.4;stroke-width:3;"/>
    <path clip-path="url(#p2341e2e7ce)" d="M 489.09375 616.732334 
L 489.09375 394.94384 
" style="fill:none;stroke:#cccccc;stroke-opacity:0.4;stroke-width:3;"/>
    <path clip-path="url(#p2341e2e7ce)" d="M 496.2625 586.269962 
L 496.2625 345.008994 
" style="fill:none;stroke:#cccccc;stroke-opacity:0.4;stroke-width:3;"/>
    <path clip-path="url(#p2341e2e7ce)" d="M 503.43125 573.234214 
L 503.43125 317.224505 
" style="fill:none;stroke:#cccccc;stroke-opacity:0.4;stroke-width:3;"/>
    <path clip-path="url(#p2341e2e7ce)" d="M 510.6 555.265925 
L 510.6 287.569184 
" style="fill:none;stroke:#cccccc;stroke-opacity:0.4;stroke-width:3;"/>
    <path clip-path="url(#p2341e2e7ce)" d="M 517.76875 537.025964 
L 517.76875 261.121001 
" style="fill:none;stroke:#cccccc;stroke-opacity:0.4;stroke-width:3;"/>
    <path clip-path="url(#p2341e2e7ce)" d="M 524.9375 529.473648 
L 524.9375 252.165641 
" style="fill:none;stroke:#cccccc;stroke-opacity:0.4;stroke-width:3;"/>
    <path clip-path="url(#p2341e2e7ce)" d="M 532.10625 534.617049 
L 532.10625 255.655961 
" style="fill:none;stroke:#cccccc;stroke-opacity:0.4;stroke-width:3;"/>
    <path clip-path="url(#p2341e2e7ce)" d="M 539.275 524.407455 
L 539.275 244.108577 
" style="fill:none;stroke:#cccccc;stroke-opacity:0.4;stroke-width:3;"/>
    <path clip-path="url(#p2341e2e7ce)" d="M 546.44375 520.061986 
L 546.44375 241.961487 
" style="fill:none;stroke:#cccccc;stroke-opacity:0.4;stroke-width:3;"/>
    <path clip-path="url(#p2341e2e7ce)" d="M 553.6125 519.248599 
L 553.6125 241.842432 
" style="fill:none;stroke:#cccccc;stroke-opacity:0.4;stroke-width:3;"/>
    <path clip-path="url(#p2341e2e7ce)" d="M 560.78125 508.692214 
L 560.78125 234.233466 
" style="fill:none;stroke:#cccccc;stroke-opacity:0.4;stroke-width:3;"/>
    <path clip-path="url(#p2341e2e7ce)" d="M 567.95 528.416841 
L 567.95 262.857681 
" style="fill:none;stroke:#cccccc;stroke-opacity:0.4;stroke-width:3;"/>
    <path clip-path="url(#p2341e2e7ce)" d="M 575.11875 540.488535 
L 575.11875 276.341804 
" style="fill:none;stroke:#cccccc;stroke-opacity:0.4;stroke-width:3;"/>
    <path clip-path="url(#p2341e2e7ce)" d="M 582.2875 555.474315 
L 582.2875 291.78126 
" style="fill:none;stroke:#cccccc;stroke-opacity:0.4;stroke-width:3;"/>
    <path clip-path="url(#p2341e2e7ce)" d="M 589.45625 575.200851 
L 589.45625 323.304497 
" style="fill:none;stroke:#cccccc;stroke-opacity:0.4;stroke-width:3;"/>
    <path clip-path="url(#p2341e2e7ce)" d="M 596.625 587.636854 
L 596.625 335.146519 
" style="fill:none;stroke:#cccccc;stroke-opacity:0.4;stroke-width:3;"/>
    <path clip-path="url(#p2341e2e7ce)" d="M 603.79375 574.866606 
L 603.79375 314.93595 
" style="fill:none;stroke:#cccccc;stroke-opacity:0.4;stroke-width:3;"/>
    <path clip-path="url(#p2341e2e7ce)" d="M 610.9625 582.421608 
L 610.9625 328.723508 
" style="fill:none;stroke:#cccccc;stroke-opacity:0.4;stroke-width:3;"/>
    <path clip-path="url(#p2341e2e7ce)" d="M 618.13125 583.65228 
L 618.13125 331.844232 
" style="fill:none;stroke:#cccccc;stroke-opacity:0.4;stroke-width:3;"/>
    <path clip-path="url(#p2341e2e7ce)" d="M 625.3 566.33255 
L 625.3 302.541864 
" style="fill:none;stroke:#cccccc;stroke-opacity:0.4;stroke-width:3;"/>
    <path clip-path="url(#p2341e2e7ce)" d="M 632.46875 563.18425 
L 632.46875 297.988884 
" style="fill:none;stroke:#cccccc;stroke-opacity:0.4;stroke-width:3;"/>
    <path clip-path="url(#p2341e2e7ce)" d="M 639.6375 556.161986 
L 639.6375 288.814286 
" style="fill:none;stroke:#cccccc;stroke-opacity:0.4;stroke-width:3;"/>
    <path clip-path="url(#p2341e2e7ce)" d="M 646.80625 535.018693 
L 646.80625 259.709318 
" style="fill:none;stroke:#cccccc;stroke-opacity:0.4;stroke-width:3;"/>
    <path clip-path="url(#p2341e2e7ce)" d="M 653.975 535.147785 
L 653.975 260.478133 
" style="fill:none;stroke:#cccccc;stroke-opacity:0.4;stroke-width:3;"/>
    <path clip-path="url(#p2341e2e7ce)" d="M 661.14375 530.378888 
L 661.14375 256.578773 
" style="fill:none;stroke:#cccccc;stroke-opacity:0.4;stroke-width:3;"/>
    <path clip-path="url(#p2341e2e7ce)" d="M 668.3125 521.533401 
L 668.3125 248.329491 
" style="fill:none;stroke:#cccccc;stroke-opacity:0.4;stroke-width:3;"/>
    <path clip-path="url(#p2341e2e7ce)" d="M 675.48125 538.665245 
L 675.48125 270.843697 
" style="fill:none;stroke:#cccccc;stroke-opacity:0.4;stroke-width:3;"/>
    <path clip-path="url(#p2341e2e7ce)" d="M 682.65 549.349149 
L 682.65 284.29968 
" style="fill:none;stroke:#cccccc;stroke-opacity:0.4;stroke-width:3;"/>
    <path clip-path="url(#p2341e2e7ce)" d="M 689.81875 548.289578 
L 689.81875 283.667042 
" style="fill:none;stroke:#cccccc;stroke-opacity:0.4;stroke-width:3;"/>
    <path clip-path="url(#p2341e2e7ce)" d="M 696.9875 571.964593 
L 696.9875 321.153312 
" style="fill:none;stroke:#cccccc;stroke-opacity:0.4;stroke-width:3;"/>
    <path clip-path="url(#p2341e2e7ce)" d="M 704.15625 605.133462 
L 704.15625 371.420732 
" style="fill:none;stroke:#cccccc;stroke-opacity:0.4;stroke-width:3;"/>
    <path clip-path="url(#p2341e2e7ce)" d="M 711.325 611.612117 
L 711.325 385.973823 
" style="fill:none;stroke:#cccccc;stroke-opacity:0.4;stroke-width:3;"/>
    <path clip-path="url(#p2341e2e7ce)" d="M 718.49375 624.498866 
L 718.49375 417.706148 
" style="fill:none;stroke:#cccccc;stroke-opacity:0.4;stroke-width:3;"/>
    <path clip-path="url(#p2341e2e7ce)" d="M 725.6625 632.272791 
L 725.6625 434.693738 
" style="fill:none;stroke:#cccccc;stroke-opacity:0.4;stroke-width:3;"/>
    <path clip-path="url(#p2341e2e7ce)" d="M 732.83125 633.64836 
L 732.83125 444.334798 
" style="fill:none;stroke:#cccccc;stroke-opacity:0.4;stroke-width:3;"/>
    <path clip-path="url(#p2341e2e7ce)" d="M 740 632.50098 
L 740 441.061713 
" style="fill:none;stroke:#cccccc;stroke-opacity:0.4;stroke-width:3;"/>
    <path clip-path="url(#p2341e2e7ce)" d="M 747.16875 634.301527 
L 747.16875 456.770353 
" style="fill:none;stroke:#cccccc;stroke-opacity:0.4;stroke-width:3;"/>
    <path clip-path="url(#p2341e2e7ce)" d="M 754.3375 626.833502 
L 754.3375 435.332677 
" style="fill:none;stroke:#cccccc;stroke-opacity:0.4;stroke-width:3;"/>
    <path clip-path="url(#p2341e2e7ce)" d="M 761.50625 600.059025 
L 761.50625 392.243077 
" style="fill:none;stroke:#cccccc;stroke-opacity:0.4;stroke-width:3;"/>
    <path clip-path="url(#p2341e2e7ce)" d="M 768.675 586.2483 
L 768.675 352.870075 
" style="fill:none;stroke:#cccccc;stroke-opacity:0.4;stroke-width:3;"/>
    <path clip-path="url(#p2341e2e7ce)" d="M 775.84375 564.544058 
L 775.84375 314.000125 
" style="fill:none;stroke:#cccccc;stroke-opacity:0.4;stroke-width:3;"/>
    <path clip-path="url(#p2341e2e7ce)" d="M 783.0125 537.661577 
L 783.0125 263.144574 
" style="fill:none;stroke:#cccccc;stroke-opacity:0.4;stroke-width:3;"/>
    <path clip-path="url(#p2341e2e7ce)" d="M 790.18125 502.241766 
L 790.18125 222.691237 
" style="fill:none;stroke:#cccccc;stroke-opacity:0.4;stroke-width:3;"/>
    <path clip-path="url(#p2341e2e7ce)" d="M 797.35 486.02338 
L 797.35 209.451364 
" style="fill:none;stroke:#cccccc;stroke-opacity:0.4;stroke-width:3;"/>
    <path clip-path="url(#p2341e2e7ce)" d="M 804.51875 463.171711 
L 804.51875 187.476749 
" style="fill:none;stroke:#cccccc;stroke-opacity:0.4;stroke-width:3;"/>
    <path clip-path="url(#p2341e2e7ce)" d="M 811.6875 465.370505 
L 811.6875 190.769002 
" style="fill:none;stroke:#cccccc;stroke-opacity:0.4;stroke-width:3;"/>
    <path clip-path="url(#p2341e2e7ce)" d="M 818.85625 450.853504 
L 818.85625 181.560536 
" style="fill:none;stroke:#cccccc;stroke-opacity:0.4;stroke-width:3;"/>
    <path clip-path="url(#p2341e2e7ce)" d="M 826.025 463.027175 
L 826.025 193.526751 
" style="fill:none;stroke:#cccccc;stroke-opacity:0.4;stroke-width:3;"/>
    <path clip-path="url(#p2341e2e7ce)" d="M 833.19375 485.402828 
L 833.19375 209.726567 
" style="fill:none;stroke:#cccccc;stroke-opacity:0.4;stroke-width:3;"/>
    <path clip-path="url(#p2341e2e7ce)" d="M 840.3625 499.517201 
L 840.3625 222.963825 
" style="fill:none;stroke:#cccccc;stroke-opacity:0.4;stroke-width:3;"/>
    <path clip-path="url(#p2341e2e7ce)" d="M 847.53125 520.819372 
L 847.53125 258.747823 
" style="fill:none;stroke:#cccccc;stroke-opacity:0.4;stroke-width:3;"/>
    <path clip-path="url(#p2341e2e7ce)" d="M 854.7 549.144815 
L 854.7 283.329828 
" style="fill:none;stroke:#cccccc;stroke-opacity:0.4;stroke-width:3;"/>
    <path clip-path="url(#p2341e2e7ce)" d="M 861.86875 583.709557 
L 861.86875 338.970212 
" style="fill:none;stroke:#cccccc;stroke-opacity:0.4;stroke-width:3;"/>
    <path clip-path="url(#p2341e2e7ce)" d="M 869.0375 603.341526 
L 869.0375 372.142086 
" style="fill:none;stroke:#cccccc;stroke-opacity:0.4;stroke-width:3;"/>
    <path clip-path="url(#p2341e2e7ce)" d="M 876.20625 621.771636 
L 876.20625 399.746981 
" style="fill:none;stroke:#cccccc;stroke-opacity:0.4;stroke-width:3;"/>
    <path clip-path="url(#p2341e2e7ce)" d="M 883.375 615.861465 
L 883.375 380.653894 
" style="fill:none;stroke:#cccccc;stroke-opacity:0.4;stroke-width:3;"/>
    <path clip-path="url(#p2341e2e7ce)" d="M 890.54375 624.117616 
L 890.54375 398.644257 
" style="fill:none;stroke:#cccccc;stroke-opacity:0.4;stroke-width:3;"/>
    <path clip-path="url(#p2341e2e7ce)" d="M 897.7125 622.77276 
L 897.7125 387.591089 
" style="fill:none;stroke:#cccccc;stroke-opacity:0.4;stroke-width:3;"/>
    <path clip-path="url(#p2341e2e7ce)" d="M 904.88125 626.424841 
L 904.88125 404.245521 
" style="fill:none;stroke:#cccccc;stroke-opacity:0.4;stroke-width:3;"/>
    <path clip-path="url(#p2341e2e7ce)" d="M 912.05 630.793327 
L 912.05 431.787271 
" style="fill:none;stroke:#cccccc;stroke-opacity:0.4;stroke-width:3;"/>
    <path clip-path="url(#p2341e2e7ce)" d="M 919.21875 635.555455 
L 919.21875 468.501543 
" style="fill:none;stroke:#cccccc;stroke-opacity:0.4;stroke-width:3;"/>
    <path clip-path="url(#p2341e2e7ce)" d="M 926.3875 634.587433 
L 926.3875 497.166545 
" style="fill:none;stroke:#cccccc;stroke-opacity:0.4;stroke-width:3;"/>
    <path clip-path="url(#p2341e2e7ce)" d="M 933.55625 632.267466 
L 933.55625 511.815467 
" style="fill:none;stroke:#cccccc;stroke-opacity:0.4;stroke-width:3;"/>
    <path clip-path="url(#p2341e2e7ce)" d="M 940.725 631.417077 
L 940.725 514.772484 
" style="fill:none;stroke:#cccccc;stroke-opacity:0.4;stroke-width:3;"/>
    <path clip-path="url(#p2341e2e7ce)" d="M 947.89375 633.46537 
L 947.89375 494.904188 
" style="fill:none;stroke:#cccccc;stroke-opacity:0.4;stroke-width:3;"/>
    <path clip-path="url(#p2341e2e7ce)" d="M 955.0625 633.694901 
L 955.0625 470.016748 
" style="fill:none;stroke:#cccccc;stroke-opacity:0.4;stroke-width:3;"/>
    <path clip-path="url(#p2341e2e7ce)" d="M 962.23125 631.188046 
L 962.23125 444.861158 
" style="fill:none;stroke:#cccccc;stroke-opacity:0.4;stroke-width:3;"/>
    <path clip-path="url(#p2341e2e7ce)" d="M 969.4 628.861182 
L 969.4 427.537671 
" style="fill:none;stroke:#cccccc;stroke-opacity:0.4;stroke-width:3;"/>
    <path clip-path="url(#p2341e2e7ce)" d="M 976.56875 618.205085 
L 976.56875 391.951554 
" style="fill:none;stroke:#cccccc;stroke-opacity:0.4;stroke-width:3;"/>
    <path clip-path="url(#p2341e2e7ce)" d="M 983.7375 619.775492 
L 983.7375 397.184519 
" style="fill:none;stroke:#cccccc;stroke-opacity:0.4;stroke-width:3;"/>
    <path clip-path="url(#p2341e2e7ce)" d="M 990.90625 621.426732 
L 990.90625 406.895258 
" style="fill:none;stroke:#cccccc;stroke-opacity:0.4;stroke-width:3;"/>
    <path clip-path="url(#p2341e2e7ce)" d="M 998.075 618.859144 
L 998.075 399.378658 
" style="fill:none;stroke:#cccccc;stroke-opacity:0.4;stroke-width:3;"/>
    <path clip-path="url(#p2341e2e7ce)" d="M 1005.24375 616.752071 
L 1005.24375 397.755964 
" style="fill:none;stroke:#cccccc;stroke-opacity:0.4;stroke-width:3;"/>
    <path clip-path="url(#p2341e2e7ce)" d="M 1012.4125 615.777739 
L 1012.4125 398.419481 
" style="fill:none;stroke:#cccccc;stroke-opacity:0.4;stroke-width:3;"/>
    <path clip-path="url(#p2341e2e7ce)" d="M 1019.58125 595.413607 
L 1019.58125 359.936166 
" style="fill:none;stroke:#cccccc;stroke-opacity:0.4;stroke-width:3;"/>
    <path clip-path="url(#p2341e2e7ce)" d="M 1026.75 576.995074 
L 1026.75 321.579344 
" style="fill:none;stroke:#cccccc;stroke-opacity:0.4;stroke-width:3;"/>
    <path clip-path="url(#p2341e2e7ce)" d="M 1033.91875 564.172998 
L 1033.91875 300.76444 
" style="fill:none;stroke:#cccccc;stroke-opacity:0.4;stroke-width:3;"/>
    <path clip-path="url(#p2341e2e7ce)" d="M 1041.0875 537.462444 
L 1041.0875 266.831731 
" style="fill:none;stroke:#cccccc;stroke-opacity:0.4;stroke-width:3;"/>
    <path clip-path="url(#p2341e2e7ce)" d="M 1048.25625 510.682677 
L 1048.25625 238.666492 
" style="fill:none;stroke:#cccccc;stroke-opacity:0.4;stroke-width:3;"/>
    <path clip-path="url(#p2341e2e7ce)" d="M 1055.425 488.654218 
L 1055.425 218.735063 
" style="fill:none;stroke:#cccccc;stroke-opacity:0.4;stroke-width:3;"/>
    <path clip-path="url(#p2341e2e7ce)" d="M 1062.59375 467.728229 
L 1062.59375 201.292792 
" style="fill:none;stroke:#cccccc;stroke-opacity:0.4;stroke-width:3;"/>
    <path clip-path="url(#p2341e2e7ce)" d="M 1069.7625 455.542024 
L 1069.7625 190.271552 
" style="fill:none;stroke:#cccccc;stroke-opacity:0.4;stroke-width:3;"/>
    <path clip-path="url(#p2341e2e7ce)" d="M 1076.93125 457.487125 
L 1076.93125 188.222846 
" style="fill:none;stroke:#cccccc;stroke-opacity:0.4;stroke-width:3;"/>
    <path clip-path="url(#p2341e2e7ce)" d="M 1084.1 441.634234 
L 1084.1 178.968874 
" style="fill:none;stroke:#cccccc;stroke-opacity:0.4;stroke-width:3;"/>
    <path clip-path="url(#p2341e2e7ce)" d="M 1091.26875 422.251064 
L 1091.26875 168.168553 
" style="fill:none;stroke:#cccccc;stroke-opacity:0.4;stroke-width:3;"/>
    <path clip-path="url(#p2341e2e7ce)" d="M 1098.4375 412.408206 
L 1098.4375 162.643385 
" style="fill:none;stroke:#cccccc;stroke-opacity:0.4;stroke-width:3;"/>
    <path clip-path="url(#p2341e2e7ce)" d="M 1105.60625 400.001045 
L 1105.60625 153.431707 
" style="fill:none;stroke:#cccccc;stroke-opacity:0.4;stroke-width:3;"/>
    <path clip-path="url(#p2341e2e7ce)" d="M 1112.775 372.945617 
L 1112.775 136.904107 
" style="fill:none;stroke:#cccccc;stroke-opacity:0.4;stroke-width:3;"/>
    <path clip-path="url(#p2341e2e7ce)" d="M 1119.94375 384.840333 
L 1119.94375 145.454044 
" style="fill:none;stroke:#cccccc;stroke-opacity:0.4;stroke-width:3;"/>
    <path clip-path="url(#p2341e2e7ce)" d="M 1127.1125 399.180627 
L 1127.1125 152.318171 
" style="fill:none;stroke:#cccccc;stroke-opacity:0.4;stroke-width:3;"/>
    <path clip-path="url(#p2341e2e7ce)" d="M 1134.28125 430.635009 
L 1134.28125 178.157168 
" style="fill:none;stroke:#cccccc;stroke-opacity:0.4;stroke-width:3;"/>
    <path clip-path="url(#p2341e2e7ce)" d="M 1141.45 450.518062 
L 1141.45 194.881095 
" style="fill:none;stroke:#cccccc;stroke-opacity:0.4;stroke-width:3;"/>
    <path clip-path="url(#p2341e2e7ce)" d="M 1148.61875 465.598093 
L 1148.61875 202.283277 
" style="fill:none;stroke:#cccccc;stroke-opacity:0.4;stroke-width:3;"/>
    <path clip-path="url(#p2341e2e7ce)" d="M 1155.7875 457.756854 
L 1155.7875 196.759513 
" style="fill:none;stroke:#cccccc;stroke-opacity:0.4;stroke-width:3;"/>
    <path clip-path="url(#p2341e2e7ce)" d="M 1162.95625 445.306894 
L 1162.95625 188.350401 
" style="fill:none;stroke:#cccccc;stroke-opacity:0.4;stroke-width:3;"/>
    <path clip-path="url(#p2341e2e7ce)" d="M 1170.125 397.635975 
L 1170.125 155.071544 
" style="fill:none;stroke:#cccccc;stroke-opacity:0.4;stroke-width:3;"/>
    <path clip-path="url(#p2341e2e7ce)" d="M 1177.29375 350.335714 
L 1177.29375 125.807959 
" style="fill:none;stroke:#cccccc;stroke-opacity:0.4;stroke-width:3;"/>
    <path clip-path="url(#p2341e2e7ce)" d="M 1184.4625 325.704008 
L 1184.4625 116.664545 
" style="fill:none;stroke:#cccccc;stroke-opacity:0.4;stroke-width:3;"/>
    <path clip-path="url(#p2341e2e7ce)" d="M 1191.63125 327.696485 
L 1191.63125 120.750209 
" style="fill:none;stroke:#cccccc;stroke-opacity:0.4;stroke-width:3;"/>
    <path clip-path="url(#p2341e2e7ce)" d="M 1198.8 320.119612 
L 1198.8 120.971151 
" style="fill:none;stroke:#cccccc;stroke-opacity:0.4;stroke-width:3;"/>
   </g>
   <g id="line2d_29">
    <path clip-path="url(#p2341e2e7ce)" d="M 173.66875 172.52462 
L 1198.8 172.52462 
L 1198.8 172.52462 
" style="fill:none;stroke:#808080;stroke-linecap:round;stroke-width:1.5;"/>
   </g>
   <g id="line2d_30">
    <path clip-path="url(#p2341e2e7ce)" d="M 173.66875 593.15955 
L 180.8375 593.15955 
L 188.00625 593.217108 
L 195.175 593.289056 
L 231.01875 592.986876 
L 238.1875 593.038678 
L 245.35625 592.935073 
L 252.525 592.520655 
L 259.69375 592.434317 
L 274.03125 591.691817 
L 281.2 591.553678 
L 288.36875 591.74362 
L 317.04375 591.709085 
L 338.55 591.225596 
L 345.71875 591.139259 
L 352.8875 590.86298 
L 367.225 590.707573 
L 374.39375 590.465829 
L 388.73125 589.481585 
L 403.06875 587.720305 
L 410.2375 587.15048 
L 417.40625 586.321642 
L 424.575 585.838154 
L 431.74375 585.061119 
L 438.9125 584.508561 
L 446.08125 583.610654 
L 453.25 582.591874 
L 460.41875 576.323792 
L 467.5875 566.446815 
L 474.75625 553.150883 
L 481.925 537.195765 
L 489.09375 505.838087 
L 496.2625 465.639478 
L 503.43125 445.229359 
L 510.6 421.417555 
L 517.76875 399.073482 
L 524.9375 390.819644 
L 532.10625 395.136505 
L 539.275 384.258016 
L 546.44375 381.011736 
L 553.6125 380.545515 
L 560.78125 371.46284 
L 567.95 395.637261 
L 575.11875 408.415169 
L 582.2875 423.627787 
L 589.45625 449.252674 
L 596.625 461.391687 
L 603.79375 444.901278 
L 610.9625 455.572558 
L 618.13125 457.748256 
L 625.3 434.437207 
L 632.46875 430.586567 
L 639.6375 422.488136 
L 646.80625 397.364005 
L 653.975 397.812959 
L 661.14375 393.478831 
L 668.3125 384.931446 
L 675.48125 404.754471 
L 682.65 416.824415 
L 689.81875 415.97831 
L 696.9875 446.558953 
L 704.15625 488.277097 
L 711.325 498.79297 
L 718.49375 521.102507 
L 725.6625 533.483264 
L 732.83125 538.991579 
L 740 536.781346 
L 747.16875 545.53594 
L 754.3375 531.08309 
L 761.50625 496.151051 
L 768.675 469.559188 
L 775.84375 439.272091 
L 783.0125 400.403076 
L 790.18125 362.466502 
L 797.35 347.737372 
L 804.51875 325.32423 
L 811.6875 328.069754 
L 818.85625 316.20702 
L 826.025 328.276963 
L 833.19375 347.564698 
L 840.3625 361.240513 
L 847.53125 389.783598 
L 854.7 416.237321 
L 861.86875 461.339884 
L 869.0375 487.741806 
L 876.20625 510.759308 
L 883.375 498.257679 
L 890.54375 511.380936 
L 897.7125 505.181924 
L 904.88125 515.335181 
L 912.05 531.290299 
L 919.21875 552.028499 
L 926.3875 565.876989 
L 933.55625 572.041466 
L 940.725 573.09478 
L 947.89375 564.184779 
L 955.0625 551.855825 
L 962.23125 538.024602 
L 969.4 528.199427 
L 976.56875 505.078319 
L 983.7375 508.480006 
L 990.90625 514.160995 
L 998.075 509.118901 
L 1005.24375 507.254017 
L 1012.4125 507.09861 
L 1019.58125 477.674886 
L 1026.75 449.287209 
L 1033.91875 432.468719 
L 1041.0875 402.147087 
L 1048.25625 374.674584 
L 1055.425 353.69464 
L 1062.59375 334.51051 
L 1069.7625 322.906788 
L 1076.93125 322.854986 
L 1084.1 310.301554 
L 1091.26875 295.209808 
L 1098.4375 287.525796 
L 1105.60625 276.716376 
L 1112.775 254.924862 
L 1119.94375 265.147189 
L 1127.1125 275.749399 
L 1134.28125 304.396088 
L 1141.45 322.699579 
L 1148.61875 333.940685 
L 1155.7875 327.258184 
L 1162.95625 316.828648 
L 1170.125 276.35376 
L 1177.29375 238.071837 
L 1184.4625 221.184277 
L 1191.63125 224.223347 
L 1198.8 220.545381 
L 1198.8 220.545381 
" style="fill:none;stroke:#000000;stroke-linecap:round;stroke-width:1.5;"/>
   </g>
   <g id="patch_3">
    <path d="M 166.5 661.5 
L 166.5 90.72 
" style="fill:none;stroke:#cccccc;stroke-linecap:square;stroke-linejoin:miter;"/>
   </g>
   <g id="patch_4">
    <path d="M 1198.8 661.5 
L 1198.8 90.72 
" style="fill:none;stroke:#cccccc;stroke-linecap:square;stroke-linejoin:miter;"/>
   </g>
   <g id="patch_5">
    <path d="M 166.5 661.5 
L 1198.8 661.5 
" style="fill:none;stroke:#cccccc;stroke-linecap:square;stroke-linejoin:miter;"/>
   </g>
   <g id="patch_6">
    <path d="M 166.5 90.72 
L 1198.8 90.72 
" style="fill:none;stroke:#cccccc;stroke-linecap:square;stroke-linejoin:miter;"/>
   </g>
   <g id="text_17">
    <!-- Self-Play via PPO -->
    <defs>
     <path d="M 8.6875 0 
L 8.6875 45.015625 
L 0.921875 45.015625 
L 0.921875 51.859375 
L 8.6875 51.859375 
L 8.6875 57.375 
Q 8.6875 62.59375 9.625 65.140625 
Q 10.890625 68.5625 14.078125 70.671875 
Q 17.28125 72.796875 23.046875 72.796875 
Q 26.765625 72.796875 31.25 71.921875 
L 29.9375 64.265625 
Q 27.203125 64.75 24.75 64.75 
Q 20.75 64.75 19.09375 63.03125 
Q 17.4375 61.328125 17.4375 56.640625 
L 17.4375 51.859375 
L 27.546875 51.859375 
L 27.546875 45.015625 
L 17.4375 45.015625 
L 17.4375 0 
z
" id="ArialMT-66"/>
     <path d="M 3.171875 21.484375 
L 3.171875 30.328125 
L 30.171875 30.328125 
L 30.171875 21.484375 
z
" id="ArialMT-2d"/>
     <path d="M 4.828125 34.859375 
Q 4.828125 52.6875 14.390625 62.765625 
Q 23.96875 72.859375 39.109375 72.859375 
Q 49.03125 72.859375 56.984375 68.109375 
Q 64.9375 63.375 69.109375 54.90625 
Q 73.296875 46.4375 73.296875 35.6875 
Q 73.296875 24.8125 68.890625 16.21875 
Q 64.5 7.625 56.4375 3.203125 
Q 48.390625 -1.21875 39.0625 -1.21875 
Q 28.953125 -1.21875 20.984375 3.65625 
Q 13.03125 8.546875 8.921875 16.984375 
Q 4.828125 25.4375 4.828125 34.859375 
z
M 14.59375 34.71875 
Q 14.59375 21.78125 21.546875 14.328125 
Q 28.515625 6.890625 39.015625 6.890625 
Q 49.703125 6.890625 56.609375 14.40625 
Q 63.53125 21.921875 63.53125 35.75 
Q 63.53125 44.484375 60.578125 51 
Q 57.625 57.515625 51.921875 61.109375 
Q 46.234375 64.703125 39.15625 64.703125 
Q 29.109375 64.703125 21.84375 57.78125 
Q 14.59375 50.875 14.59375 34.71875 
z
" id="ArialMT-4f"/>
    </defs>
    <g style="fill:#262626;" transform="translate(606.357 84.72)scale(0.192 -0.192)">
     <use xlink:href="#ArialMT-53"/>
     <use x="66.699219" xlink:href="#ArialMT-65"/>
     <use x="122.314453" xlink:href="#ArialMT-6c"/>
     <use x="144.53125" xlink:href="#ArialMT-66"/>
     <use x="172.314453" xlink:href="#ArialMT-2d"/>
     <use x="205.615234" xlink:href="#ArialMT-50"/>
     <use x="272.314453" xlink:href="#ArialMT-6c"/>
     <use x="294.53125" xlink:href="#ArialMT-61"/>
     <use x="350.146484" xlink:href="#ArialMT-79"/>
     <use x="400.146484" xlink:href="#ArialMT-20"/>
     <use x="427.929688" xlink:href="#ArialMT-76"/>
     <use x="477.929688" xlink:href="#ArialMT-69"/>
     <use x="500.146484" xlink:href="#ArialMT-61"/>
     <use x="555.761719" xlink:href="#ArialMT-20"/>
     <use x="583.544922" xlink:href="#ArialMT-50"/>
     <use x="650.244141" xlink:href="#ArialMT-50"/>
     <use x="716.943359" xlink:href="#ArialMT-4f"/>
    </g>
   </g>
  </g>
 </g>
 <defs>
  <clipPath id="p2341e2e7ce">
   <rect height="570.78" width="1032.3" x="166.5" y="90.72"/>
  </clipPath>
 </defs>
</svg>
